<svg xmlns="http://www.w3.org/2000/svg" width="74.786" height="67.099" viewBox="0 0 74.786 67.099">
    <g data-name="alert (1)">
        <g data-name="Group 48">
            <g data-name="Group 47">
                <path data-name="Path 41" d="M73.594 80.223 45.009 30.712a8.794 8.794 0 0 0-15.232 0L1.192 80.223a8.794 8.794 0 0 0 7.616 13.191h57.17a8.794 8.794 0 0 0 7.616-13.191zm-3.795 6.6a4.368 4.368 0 0 1-3.821 2.206H8.808a4.412 4.412 0 0 1-3.821-6.619L33.572 32.9a4.412 4.412 0 0 1 7.643 0L69.8 82.414a4.368 4.368 0 0 1 0 4.412z" transform="translate(0 -26.315)" style="fill:red"/>
            </g>
        </g>
        <g data-name="Group 50">
            <g data-name="Group 49">
                <path data-name="Rectangle 162" style="fill:red" d="M0 0h4.381v21.907H0z" transform="translate(35.202 21.865)"/>
            </g>
        </g>
        <g data-name="Group 52">
            <g data-name="Group 51">
                <path data-name="Path 42" d="M238.923 355.99a2.921 2.921 0 1 0 2.921 2.921 2.924 2.924 0 0 0-2.921-2.921z" transform="translate(-201.53 -307.835)" style="fill:red"/>
            </g>
        </g>
    </g>
</svg>
