<svg width="22" height="24" viewBox="0 0 22 24" fill="none" xmlns="http://www.w3.org/2000/svg">
<path d="M11 23.9998C11.7956 23.9998 12.5587 23.6838 13.1213 23.1212C13.6839 22.5586 14 21.7955 14 20.9998H8C8 21.7955 8.31607 22.5586 8.87868 23.1212C9.44129 23.6838 10.2044 23.9998 11 23.9998ZM12.4925 1.64835C12.5134 1.43978 12.4904 1.22914 12.4249 1.03001C12.3595 0.830878 12.253 0.647682 12.1124 0.492235C11.9717 0.336787 11.8001 0.212539 11.6085 0.127504C11.4169 0.0424694 11.2096 -0.00146484 11 -0.00146484C10.7904 -0.00146484 10.5831 0.0424694 10.3915 0.127504C10.1999 0.212539 10.0283 0.336787 9.88763 0.492235C9.74701 0.647682 9.64052 0.830878 9.57505 1.03001C9.50958 1.22914 9.48656 1.43978 9.5075 1.64835C7.81208 1.9932 6.28793 2.91339 5.19315 4.2531C4.09836 5.59281 3.50022 7.26971 3.5 8.99985C3.5 10.6468 2.75 17.9998 0.5 19.4998H21.5C19.25 17.9998 18.5 10.6468 18.5 8.99985C18.5 5.36985 15.92 2.33985 12.4925 1.64835Z" fill="#1C3366"/>
</svg>
