<svg width="18" height="23" viewBox="0 0 18 23" fill="none" xmlns="http://www.w3.org/2000/svg">
<path d="M1.85923 7.08205V19.7741C1.85329 20.5003 2.11055 21.2013 2.57823 21.7334C2.8018 21.985 3.07162 22.1857 3.37115 22.3232C3.67069 22.4608 3.99363 22.5323 4.32023 22.5334H13.5382C13.8648 22.5323 14.1878 22.4608 14.4873 22.3232C14.7868 22.1857 15.0566 21.985 15.2802 21.7334C15.7464 21.2006 16.0023 20.4997 15.9952 19.7741V7.08205C16.4312 6.95906 16.8101 6.67293 17.0615 6.27685C17.3128 5.88077 17.4195 5.4017 17.3617 4.92874C17.3039 4.45577 17.0855 4.02109 16.7471 3.70553C16.4088 3.38997 15.9735 3.21499 15.5222 3.21315H13.0222V2.56851C13.0234 2.30061 12.9743 2.03512 12.8776 1.78745C12.781 1.53977 12.6388 1.31484 12.4592 1.1257C12.2797 0.936559 12.0664 0.786971 11.8318 0.685613C11.5971 0.584255 11.3457 0.533144 11.0922 0.535246H6.76323C6.50947 0.532722 6.25778 0.583521 6.02277 0.68469C5.78775 0.785858 5.57411 0.93538 5.39426 1.12456C5.2144 1.31375 5.07192 1.53882 4.97509 1.78671C4.87826 2.03459 4.82902 2.30034 4.83023 2.56851V3.21209H2.33723C1.88596 3.21394 1.45068 3.38891 1.11234 3.70447C0.773989 4.02004 0.555599 4.45472 0.497775 4.92768C0.439952 5.40065 0.546631 5.87971 0.797974 6.27579C1.04932 6.67187 1.42822 6.95801 1.86423 7.081L1.85923 7.08205ZM13.5382 21.4988H4.31623C4.11075 21.4903 3.90895 21.4386 3.72266 21.3465C3.53637 21.2545 3.36934 21.1241 3.23139 20.963C3.09343 20.8019 2.98733 20.6132 2.9193 20.4081C2.85127 20.2031 2.82268 19.9857 2.83523 19.7688V7.12749H15.0202V19.7741C15.0322 19.9907 15.0032 20.2077 14.9348 20.4124C14.8665 20.617 14.7602 20.8052 14.6222 20.9659C14.4842 21.1266 14.3173 21.2566 14.1311 21.3483C13.945 21.44 13.7434 21.4904 13.5382 21.4988ZM5.80823 2.56851C5.80727 2.43605 5.83142 2.30472 5.87925 2.18228C5.92708 2.05984 5.99763 1.94876 6.08672 1.85559C6.17582 1.76241 6.28167 1.68904 6.39803 1.63978C6.51439 1.59052 6.6389 1.56638 6.76423 1.56879H11.0922C11.2176 1.56638 11.3421 1.59052 11.4584 1.63978C11.5748 1.68904 11.6806 1.76241 11.7697 1.85559C11.8588 1.94876 11.9294 2.05984 11.9772 2.18228C12.025 2.30472 12.0492 2.43605 12.0482 2.56851V3.21209H5.80823V2.56851ZM2.33723 4.24246H15.5202C15.753 4.24246 15.9761 4.34016 16.1407 4.51407C16.3053 4.68798 16.3977 4.92385 16.3977 5.16979C16.3977 5.41574 16.3053 5.65161 16.1407 5.82552C15.9761 5.99942 15.753 6.09713 15.5202 6.09713H2.33723C2.1045 6.09713 1.8813 5.99942 1.71674 5.82552C1.55218 5.65161 1.45973 5.41574 1.45973 5.16979C1.45973 4.92385 1.55218 4.68798 1.71674 4.51407C1.8813 4.34016 2.1045 4.24246 2.33723 4.24246Z" fill="#777777"/>
</svg>
