<svg xmlns="http://www.w3.org/2000/svg" width="75.143" height="56.357" viewBox="0 0 75.143 56.357">
    <g data-name="card-image (2)">
        <path data-name="Path 75" d="M17.091 11.045A7.045 7.045 0 1 1 10.047 4a7.045 7.045 0 0 1 7.044 7.045z" transform="translate(11.097 5.393)" style="fill:#e8edf2"/>
        <path data-name="Path 76" d="M7.045 2A7.045 7.045 0 0 0 0 9.045v42.267a7.045 7.045 0 0 0 7.045 7.045H68.1a7.045 7.045 0 0 0 7.045-7.045V9.045A7.045 7.045 0 0 0 68.1 2zM68.1 6.7a2.348 2.348 0 0 1 2.348 2.348v28.175l-17.731-9.144a2.348 2.348 0 0 0-2.71.437L32.584 45.94l-12.493-8.322a2.348 2.348 0 0 0-2.959.291L4.706 48.964V51.5q-.008-.094-.009-.188V9.045A2.348 2.348 0 0 1 7.045 6.7z" transform="translate(0 -2)" style="fill:#e8edf2"/>
    </g>
</svg>
