<svg width="44" height="44" viewBox="0 0 44 44" fill="none" xmlns="http://www.w3.org/2000/svg">
<rect width="44" height="44" rx="2" fill="#2CC21C" fill-opacity="0.2"/>
<mask id="mask0_1928_17507" style="mask-type:alpha" maskUnits="userSpaceOnUse" x="10" y="10" width="24" height="24">
<rect x="10" y="10" width="24" height="24" fill="#2CC21C"/>
</mask>
<g mask="url(#mask0_1928_17507)">
</g>
<g clip-path="url(#clip0_1928_17507)">
<path d="M30.8438 14.2145C31.001 14.2145 31.1519 14.2773 31.2633 14.3894C31.3748 14.5016 31.4375 14.6538 31.4375 14.8127V27.8306C31.4375 27.9895 31.3748 28.1417 31.2633 28.2538C31.1519 28.3659 31.001 28.4288 30.8438 28.4288H12.1562C11.999 28.4288 11.8481 28.3659 11.7367 28.2538C11.6252 28.1417 11.5625 27.9895 11.5625 27.8306V14.8127C11.5625 14.6538 11.6252 14.5016 11.7367 14.3894C11.8481 14.2773 11.999 14.2145 12.1562 14.2145H30.8438ZM12.1562 12.5181C11.551 12.5181 10.9706 12.76 10.5429 13.1904C10.1152 13.6208 9.875 14.2044 9.875 14.8127V27.8306C9.875 28.4389 10.1152 29.0225 10.5429 29.4529C10.9706 29.8833 11.551 30.1252 12.1562 30.1252H30.8438C31.449 30.1252 32.0294 29.8833 32.4571 29.4529C32.8848 29.0225 33.125 28.4389 33.125 27.8306V14.8127C33.125 14.2044 32.8848 13.6208 32.4571 13.1904C32.0294 12.76 31.449 12.5181 30.8438 12.5181H12.1562Z" fill="#2CC21C" stroke="#2CC21C" stroke-width="0.25"/>
<path d="M20.0626 17.7055C20.0626 17.5137 20.1384 17.3298 20.2731 17.1941C20.4079 17.0585 20.5908 16.9823 20.7814 16.9823H27.9689C28.1595 16.9823 28.3423 17.0585 28.4771 17.1941C28.6119 17.3298 28.6876 17.5137 28.6876 17.7055C28.6876 17.8973 28.6119 18.0813 28.4771 18.2169C28.3423 18.3526 28.1595 18.4287 27.9689 18.4287H20.7814C20.5908 18.4287 20.4079 18.3526 20.2731 18.2169C20.1384 18.0813 20.0626 17.8973 20.0626 17.7055ZM17.9121 16.4703C17.9791 16.5375 18.0322 16.6173 18.0684 16.7051C18.1046 16.793 18.1233 16.8872 18.1233 16.9823C18.1233 17.0774 18.1046 17.1716 18.0684 17.2595C18.0322 17.3474 17.9791 17.4272 17.9121 17.4944L15.7559 19.664C15.6891 19.7313 15.6098 19.7848 15.5225 19.8212C15.4352 19.8577 15.3415 19.8765 15.247 19.8765C15.1525 19.8765 15.0588 19.8577 14.9715 19.8212C14.8842 19.7848 14.8049 19.7313 14.7381 19.664L14.0194 18.9408C13.9526 18.8735 13.8995 18.7937 13.8634 18.7059C13.8272 18.618 13.8086 18.5238 13.8086 18.4287C13.8086 18.2367 13.8844 18.0525 14.0194 17.9167C14.1543 17.7809 14.3374 17.7046 14.5283 17.7046C14.7191 17.7046 14.9022 17.7809 15.0371 17.9167L15.247 18.1293L16.8944 16.4703C16.9611 16.4029 17.0405 16.3495 17.1278 16.313C17.2151 16.2766 17.3087 16.2578 17.4033 16.2578C17.4978 16.2578 17.5914 16.2766 17.6787 16.313C17.766 16.3495 17.8454 16.4029 17.9121 16.4703ZM20.0626 23.4912C20.0626 23.2994 20.1384 23.1155 20.2731 22.9799C20.4079 22.8442 20.5908 22.768 20.7814 22.768H27.9689C28.1595 22.768 28.3423 22.8442 28.4771 22.9799C28.6119 23.1155 28.6876 23.2994 28.6876 23.4912C28.6876 23.6831 28.6119 23.867 28.4771 24.0026C28.3423 24.1383 28.1595 24.2145 27.9689 24.2145H20.7814C20.5908 24.2145 20.4079 24.1383 20.2731 24.0026C20.1384 23.867 20.0626 23.6831 20.0626 23.4912ZM17.9121 22.256C17.9791 22.3232 18.0322 22.403 18.0684 22.4908C18.1046 22.5787 18.1233 22.6729 18.1233 22.768C18.1233 22.8632 18.1046 22.9574 18.0684 23.0452C18.0322 23.1331 17.9791 23.2129 17.9121 23.2801L15.7559 25.4497C15.6891 25.5171 15.6098 25.5705 15.5225 25.607C15.4352 25.6434 15.3415 25.6622 15.247 25.6622C15.1525 25.6622 15.0588 25.6434 14.9715 25.607C14.8842 25.5705 14.8049 25.5171 14.7381 25.4497L14.0194 24.7265C13.9526 24.6593 13.8995 24.5794 13.8634 24.4916C13.8272 24.4037 13.8086 24.3096 13.8086 24.2145C13.8086 24.1194 13.8272 24.0252 13.8634 23.9374C13.8995 23.8495 13.9526 23.7697 14.0194 23.7024C14.0862 23.6352 14.1655 23.5818 14.2529 23.5455C14.3402 23.5091 14.4337 23.4903 14.5283 23.4903C14.6228 23.4903 14.7163 23.5091 14.8037 23.5455C14.891 23.5818 14.9703 23.6352 15.0371 23.7024L15.247 23.9151L16.8944 22.256C16.9611 22.1886 17.0405 22.1352 17.1278 22.0988C17.2151 22.0623 17.3087 22.0435 17.4033 22.0435C17.4978 22.0435 17.5914 22.0623 17.6787 22.0988C17.766 22.1352 17.8454 22.1886 17.9121 22.256Z" fill="#2CC21C"/>
</g>
<defs>
<clipPath id="clip0_1928_17507">
<rect width="23" height="18" fill="white" transform="translate(10 12)"/>
</clipPath>
</defs>
</svg>
