<svg xmlns="http://www.w3.org/2000/svg" width="32" height="32" viewBox="0 0 32 32">
    <g data-name="Group 1715">
        <path data-name="Rectangle 330" style="fill:none" d="M0 0h32v32H0z"/>
        <path d="M0 4.891A2.891 2.891 0 0 1 2.891 2H20.24a2.891 2.891 0 0 1 2.891 2.891v11.566a2.891 2.891 0 0 1-2.891 2.891H2.891A2.891 2.891 0 0 1 0 16.457zm2.891-1.445a1.446 1.446 0 0 0-1.445 1.445v.314l10.12 6.072 10.12-6.072v-.314a1.446 1.446 0 0 0-1.446-1.445zm18.794 3.445-6.806 4.084 6.806 4.188zm-.049 9.94-8.154-5.018-1.917 1.149-1.917-1.149-8.153 5.017a1.446 1.446 0 0 0 1.4 1.073H20.24a1.446 1.446 0 0 0 1.4-1.071zm-20.19-1.668 6.806-4.188-6.806-4.084z" transform="translate(4 5)" style="fill:#222"/>
    </g>
</svg>
