<svg xmlns="http://www.w3.org/2000/svg" width="24" height="24" viewBox="0 0 24 24">
    <g data-name="Group 2019">
        <g data-name="Group 19">
            <path data-name="Path 18" d="M8.973 7.24 1.981.251a.861.861 0 0 0-1.215 0L.251.765a.861.861 0 0 0 0 1.215l5.87 5.87-5.87 5.877a.862.862 0 0 0 0 1.216l.514.514a.862.862 0 0 0 1.216 0l7-7a.867.867 0 0 0 0-1.219z" transform="translate(7.28 3.994)" style="fill:#1c3366"/>
        </g>
        <path data-name="Rectangle 196" style="fill:none" d="M0 0h24v24H0z" transform="rotate(-90 12 12)"/>
    </g>
</svg>
