<svg width="35" height="35" viewBox="0 0 35 35" fill="none" xmlns="http://www.w3.org/2000/svg">
<path d="M10.6189 30.4999H32.7499C29.3749 28.2499 28.2499 17.2204 28.2499 14.7499C28.2499 14.1559 28.2049 13.5731 28.1149 13.0039L10.6189 30.4999ZM24.7669 6.61163C23.2339 5.14642 21.3171 4.14552 19.2386 3.72488C19.27 3.41203 19.2355 3.09607 19.1373 2.79737C19.0391 2.49868 18.8794 2.22389 18.6684 1.99071C18.4575 1.75754 18.2 1.57117 17.9126 1.44362C17.6252 1.31607 17.3143 1.25016 16.9999 1.25016C16.6855 1.25016 16.3745 1.31607 16.0871 1.44362C15.7997 1.57117 15.5423 1.75754 15.3313 1.99071C15.1204 2.22389 14.9607 2.49868 14.8625 2.79737C14.7642 3.09607 14.7297 3.41203 14.7611 3.72488C12.2184 4.24208 9.93245 5.62204 8.29032 7.63114C6.64818 9.64024 5.75073 12.1551 5.74988 14.7499C5.74988 16.7704 4.99613 24.5194 2.87438 28.5041L24.7669 6.61163ZM21.4999 32.7499C21.4999 33.9434 21.0258 35.0879 20.1819 35.9319C19.3379 36.7758 18.1934 37.2499 16.9999 37.2499C15.8064 37.2499 14.6618 36.7758 13.8179 35.9319C12.974 35.0879 12.4999 33.9434 12.4999 32.7499H21.4999ZM0.406133 34.1561C0.182357 34.3799 0.0566406 34.6834 0.0566406 34.9999C0.0566406 35.3163 0.182357 35.6199 0.406133 35.8436C0.62991 36.0674 0.933416 36.1931 1.24988 36.1931C1.56635 36.1931 1.86986 36.0674 2.09363 35.8436L35.2811 2.65613C35.3919 2.54533 35.4798 2.41379 35.5398 2.26902C35.5998 2.12425 35.6306 1.96908 35.6306 1.81238C35.6306 1.65568 35.5998 1.50052 35.5398 1.35575C35.4798 1.21098 35.3919 1.07944 35.2811 0.968633C35.1703 0.85783 35.0388 0.769937 34.894 0.709971C34.7492 0.650005 34.5941 0.619141 34.4374 0.619141C34.2807 0.619141 34.1255 0.650005 33.9807 0.709971C33.836 0.769937 33.7044 0.85783 33.5936 0.968633L0.406133 34.1561Z" fill="#777777"/>
</svg>
