<svg width="44" height="44" viewBox="0 0 44 44" fill="none" xmlns="http://www.w3.org/2000/svg">
<rect width="44" height="44" rx="2" fill="#F88227" fill-opacity="0.2"/>
<mask id="mask0_1928_17508" style="mask-type:alpha" maskUnits="userSpaceOnUse" x="10" y="10" width="24" height="24">
<rect x="10" y="10" width="24" height="24" fill="#D9D9D9"/>
</mask>
<g mask="url(#mask0_1928_17508)">
<path d="M21.6252 11C23.1419 11 24.4377 11.5292 25.5127 12.5875C26.5877 13.6458 27.1252 14.9333 27.1252 16.45C27.1252 17.25 26.946 18.0375 26.5877 18.8125C26.2294 19.5875 25.6919 20.2583 24.9752 20.825H24.1252V18.9C24.4252 18.5667 24.6669 18.1958 24.8502 17.7875C25.0335 17.3792 25.1252 16.9333 25.1252 16.45C25.1252 15.5 24.7794 14.6875 24.0877 14.0125C23.396 13.3375 22.5752 13 21.6252 13C20.6419 13 19.8127 13.3375 19.1377 14.0125C18.4627 14.6875 18.1252 15.5 18.1252 16.45C18.1252 16.9333 18.2127 17.3917 18.3877 17.825C18.5627 18.2583 18.8085 18.6333 19.1252 18.95V21.4C18.2252 20.9333 17.5002 20.2667 16.9502 19.4C16.4002 18.5333 16.1252 17.55 16.1252 16.45C16.1252 14.9333 16.6585 13.6458 17.7252 12.5875C18.7919 11.5292 20.0919 11 21.6252 11ZM20.6752 32C20.3919 32 20.1252 31.9458 19.8752 31.8375C19.6252 31.7292 19.4085 31.5833 19.2252 31.4L14.0752 26.25L15.4752 24.8C15.7085 24.5667 15.971 24.3875 16.2627 24.2625C16.5544 24.1375 16.8585 24.1167 17.1752 24.2L19.1252 24.65V16.5C19.1252 15.8 19.3669 15.2083 19.8502 14.725C20.3335 14.2417 20.9252 14 21.6252 14C22.3252 14 22.9169 14.2417 23.4002 14.725C23.8835 15.2083 24.1252 15.8 24.1252 16.5V20.8H24.7752C24.8585 20.8 24.9377 20.8125 25.0127 20.8375C25.0877 20.8625 25.1585 20.9 25.2252 20.95L28.9252 22.75C29.3252 22.9333 29.621 23.2292 29.8127 23.6375C30.0044 24.0458 30.0585 24.4667 29.9752 24.9L29.0752 30.35C28.9919 30.8333 28.7585 31.2292 28.3752 31.5375C27.9919 31.8458 27.5585 32 27.0752 32H20.6752ZM20.6752 30H27.0752L28.0252 24.55L23.8752 22.5H22.1252V16.5C22.1252 16.35 22.0794 16.2292 21.9877 16.1375C21.896 16.0458 21.7752 16 21.6252 16C21.4752 16 21.3544 16.0458 21.2627 16.1375C21.171 16.2292 21.1252 16.35 21.1252 16.5V27.1L16.8752 26.2L20.6752 30Z" fill="#F88227"/>
</g>
</svg>
