<svg width="12" height="16" viewBox="0 0 12 16" fill="none" xmlns="http://www.w3.org/2000/svg">
<path d="M2.5 0C1.83696 0 1.20107 0.263392 0.732233 0.732233C0.263392 1.20107 0 1.83696 0 2.5V14C0 14.5304 0.210714 15.0391 0.585786 15.4142C0.960859 15.7893 1.46957 16 2 16H10C10.5304 16 11.0391 15.7893 11.4142 15.4142C11.7893 15.0391 12 14.5304 12 14V2.5C12 1.83696 11.7366 1.20107 11.2678 0.732233C10.7989 0.263392 10.163 0 9.5 0L2.5 0ZM1 2.5C1 2.10218 1.15804 1.72064 1.43934 1.43934C1.72064 1.15804 2.10218 1 2.5 1H9.5C9.89782 1 10.2794 1.15804 10.5607 1.43934C10.842 1.72064 11 2.10218 11 2.5V13.295C10.7601 13.1031 10.4999 12.9381 10.224 12.803C9.392 12.387 8.063 12 6 12C3.937 12 2.608 12.387 1.776 12.803C1.50012 12.9381 1.2399 13.1031 1 13.295V2.5Z" fill="#409EFF"/>
</svg>
