<svg width="9" height="8" viewBox="0 0 9 8" fill="none" xmlns="http://www.w3.org/2000/svg">
<path d="M6.97034 0.969792C6.96321 0.976696 6.95653 0.984044 6.95034 0.991792L3.47734 5.41679L1.38434 3.32279C1.24216 3.19031 1.05412 3.11819 0.859816 3.12162C0.665515 3.12505 0.48013 3.20376 0.342717 3.34117C0.205304 3.47858 0.126592 3.66397 0.123164 3.85827C0.119736 4.05257 0.191858 4.24062 0.324338 4.38279L2.97034 7.02979C3.04162 7.10094 3.1265 7.15701 3.21992 7.19465C3.31334 7.23228 3.41339 7.25072 3.51408 7.24885C3.61478 7.24698 3.71407 7.22486 3.80604 7.18378C3.898 7.14271 3.98074 7.08354 4.04934 7.00979L8.04134 2.01979C8.17727 1.87712 8.25159 1.68669 8.24823 1.48966C8.24487 1.29263 8.16411 1.10484 8.02339 0.966887C7.88268 0.828933 7.69333 0.751901 7.49627 0.752444C7.29921 0.752988 7.11029 0.831064 6.97034 0.969792Z" fill="#409EFF"/>
</svg>
