<svg width="44" height="44" viewBox="0 0 44 44" fill="none" xmlns="http://www.w3.org/2000/svg">
<rect width="44" height="44" rx="2" fill="#409EFF" fill-opacity="0.2"/>
<g clip-path="url(#clip0_1928_17509)">
<path d="M26.5 19C26.5 20.1935 26.0259 21.3381 25.182 22.182C24.3381 23.0259 23.1935 23.5 22 23.5C20.8065 23.5 19.6619 23.0259 18.818 22.182C17.9741 21.3381 17.5 20.1935 17.5 19C17.5 17.8065 17.9741 16.6619 18.818 15.818C19.6619 14.9741 20.8065 14.5 22 14.5C23.1935 14.5 24.3381 14.9741 25.182 15.818C26.0259 16.6619 26.5 17.8065 26.5 19Z" fill="#409EFF"/>
<path fill-rule="evenodd" clip-rule="evenodd" d="M10 22C10 18.8174 11.2643 15.7652 13.5147 13.5147C15.7652 11.2643 18.8174 10 22 10C25.1826 10 28.2348 11.2643 30.4853 13.5147C32.7357 15.7652 34 18.8174 34 22C34 25.1826 32.7357 28.2348 30.4853 30.4853C28.2348 32.7357 25.1826 34 22 34C18.8174 34 15.7652 32.7357 13.5147 30.4853C11.2643 28.2348 10 25.1826 10 22ZM22 11.5C20.0227 11.5001 18.0855 12.0585 16.4116 13.111C14.7377 14.1635 13.3949 15.6673 12.5379 17.4493C11.681 19.2313 11.3446 21.219 11.5675 23.1837C11.7904 25.1485 12.5636 27.0103 13.798 28.555C14.863 26.839 17.2075 25 22 25C26.7925 25 29.1355 26.8375 30.202 28.555C31.4364 27.0103 32.2096 25.1485 32.4325 23.1837C32.6554 21.219 32.319 19.2313 31.4621 17.4493C30.6051 15.6673 29.2623 14.1635 27.5884 13.111C25.9145 12.0585 23.9773 11.5001 22 11.5Z" fill="#409EFF"/>
</g>
<defs>
<clipPath id="clip0_1928_17509">
<rect width="24" height="24" fill="white" transform="translate(10 10)"/>
</clipPath>
</defs>
</svg>
