<svg xmlns="http://www.w3.org/2000/svg" width="32" height="32" viewBox="0 0 32 32">
    <g data-name="Group 1714">
        <path data-name="Rectangle 330" style="fill:none" d="M0 0h32v32H0z"/>
        <path d="M17.956 3.071A10.369 10.369 0 0 0 10.554 0 10.475 10.475 0 0 0 1.48 15.7L0 21.123l5.55-1.455a10.473 10.473 0 0 0 5 1.274h.005a10.464 10.464 0 0 0 7.4-17.872zm-7.4 16.1a8.678 8.678 0 0 1-4.431-1.215l-.317-.19-3.293.863.879-3.212-.206-.331a8.7 8.7 0 1 1 7.367 4.085zm4.773-6.514c-.26-.131-1.545-.763-1.786-.853s-.416-.131-.587.131-.677.853-.828 1.023-.306.2-.568.066a7.142 7.142 0 0 1-2.1-1.3A7.982 7.982 0 0 1 8 9.912c-.151-.261-.015-.4.116-.532.115-.116.26-.306.391-.457a1.669 1.669 0 0 0 .261-.436.487.487 0 0 0-.02-.458c-.066-.129-.588-1.42-.808-1.94s-.426-.442-.587-.449-.326-.009-.5-.009a.962.962 0 0 0-.7.326A2.931 2.931 0 0 0 5.24 8.14a5.067 5.067 0 0 0 1.069 2.705 11.628 11.628 0 0 0 4.466 3.95 14.55 14.55 0 0 0 1.491.552 3.593 3.593 0 0 0 1.645.106 2.709 2.709 0 0 0 1.766-1.245 2.19 2.19 0 0 0 .151-1.245c-.065-.111-.24-.176-.5-.306z" transform="translate(5.076 5.076)" style="fill:#222"/>
    </g>
</svg>
