<svg xmlns="http://www.w3.org/2000/svg" width="24" height="24" viewBox="0 0 24 24">
    <g data-name="Group 281" transform="translate(-723.608 -427.609)">
        <rect data-name="Rectangle 330" width="24" height="24" rx="4" transform="translate(723.608 427.609)" style="fill:none"/>
        <g data-name="edit (2)">
            <g data-name="Group 155">
                <path data-name="Path 17" d="M16.962 3.146 14.289.472a1.611 1.611 0 0 0-2.279 0L1.516 10.966a.575.575 0 0 0-.152.27L.017 16.722a.576.576 0 0 0 .7.7L6.2 16.07a.575.575 0 0 0 .27-.152L16.962 5.425a1.611 1.611 0 0 0 0-2.279zM1.361 16.074l.055-.223.169.169zM2.89 15.7l-1.154-1.156.5-2.043 2.7 2.7zm3.172-1-3.326-3.327 8.588-8.588L14.65 6.11zM16.149 4.612l-.664.664-3.326-3.326.664-.664a.461.461 0 0 1 .653 0l2.673 2.673a.461.461 0 0 1 0 .653z" transform="rotate(-5 5306.688 -8100.103)" style="fill:#777"/>
            </g>
        </g>
    </g>
</svg>
