<svg xmlns="http://www.w3.org/2000/svg" width="24" height="24" viewBox="0 0 24 24">
    <g data-name="Group 1685">
        <path data-name="Rectangle 427" style="fill:none" d="M0 0h24v24H0z"/>
        <g data-name="industry (1)">
            <g data-name="Group 1549">
                <g data-name="Group 1548">
                    <path data-name="Path 43" d="M4.844 0H.469A.469.469 0 0 0 0 .469v1.094h5.313V.469A.469.469 0 0 0 4.844 0z" style="fill:#999" transform="translate(4 4)"/>
                </g>
            </g>
            <g data-name="Group 1551">
                <g data-name="Group 1550">
                    <path data-name="Path 44" d="M15.764 81.968a.469.469 0 0 0-.47 0l-4.638 2.713v-2.306a.469.469 0 0 0-.705-.4l-4.638 2.708V80H0v13.031a.469.469 0 0 0 .469.469h15.062a.469.469 0 0 0 .469-.469V82.375a.469.469 0 0 0-.236-.407zM7.188 90.2a.469.469 0 0 1-.469.469H4.844a.469.469 0 0 1-.469-.469v-1.872a.469.469 0 0 1 .469-.469h1.875a.469.469 0 0 1 .469.469zm5.344 0a.469.469 0 0 1-.469.469h-1.875a.469.469 0 0 1-.469-.469v-1.872a.469.469 0 0 1 .469-.469h1.875a.469.469 0 0 1 .469.469z" transform="translate(4 -73.5)" style="fill:#999"/>
                </g>
            </g>
        </g>
    </g>
</svg>
