<svg xmlns="http://www.w3.org/2000/svg" width="24" height="24" viewBox="0 0 24 24">
    <g data-name="Group 1654">
        <g data-name="Group 19">
            <path data-name="Path 18" d="M110.844 7.555 103.55.262a.9.9 0 0 0-1.267 0l-.539.538a.9.9 0 0 0 0 1.267l6.125 6.125-6.125 6.131a.9.9 0 0 0 0 1.269l.537.537a.9.9 0 0 0 1.269 0l7.3-7.3a.905.905 0 0 0 0-1.272z" transform="translate(-94.297 3.996)" style="fill:#222"/>
        </g>
        <path data-name="Rectangle 196" transform="rotate(-90 12 12)" style="fill:none" d="M0 0h24v24H0z"/>
    </g>
</svg>
