<svg xmlns="http://www.w3.org/2000/svg" width="24" height="24" viewBox="0 0 24 24">
    <g data-name="Group 1684">
        <path data-name="Rectangle 427" style="fill:none" d="M0 0h24v24H0z"/>
        <path d="M7.214 16.428v-4.006a.614.614 0 0 1 .571-.566h2.286a.614.614 0 0 1 .571.571v4a.571.571 0 0 0 .571.571h4.571a.571.571 0 0 0 .571-.571v-8a.571.571 0 0 0-.167-.4l-1.546-1.55V2.714a.571.571 0 0 0-.571-.571h-1.143a.571.571 0 0 0-.571.571v1.478L9.333 1.167a.571.571 0 0 0-.809 0L1.667 8.024a.571.571 0 0 0-.167.4v8a.571.571 0 0 0 .571.576h4.572a.571.571 0 0 0 .571-.572z" transform="translate(3.5 3.001)" style="fill:#999"/>
    </g>
</svg>
