<svg width="16" height="16" viewBox="0 0 16 16" fill="none" xmlns="http://www.w3.org/2000/svg">
<path d="M7.59369 0.615005C7.48923 0.635321 7.29472 0.707945 7.15828 0.774655L6.91162 0.893674L3.90472 3.90355L0.895085 6.9107L0.776076 7.15738C0.50319 7.7176 0.50319 8.2807 0.776076 8.84092L0.895085 9.08759L3.90472 12.0947L6.91162 15.1048L7.15828 15.2238C7.29472 15.2905 7.49787 15.3631 7.60809 15.3863C8.03182 15.4762 8.43524 15.4212 8.84153 15.2238L9.08819 15.1048L12.0952 12.0947L15.1049 9.08759L15.2239 8.84092C15.4968 8.2807 15.4968 7.7176 15.2239 7.15738L15.1049 6.9107L12.0952 3.90355L9.08834 0.893523L8.84169 0.774505C8.43539 0.577252 8.01454 0.522064 7.59369 0.615005ZM8.41204 1.59308C8.53969 1.65691 9.08243 2.18529 11.4711 4.57991C14.7131 7.82782 14.4868 7.56962 14.4868 7.99915C14.4868 8.42867 14.7131 8.17047 11.4712 11.4184C8.20889 14.6868 8.43539 14.4865 7.99998 14.4865C7.56458 14.4865 7.79107 14.6868 4.52872 11.4184C1.28683 8.17032 1.51317 8.42867 1.51317 7.99915C1.51317 7.56962 1.28971 7.82494 4.51416 4.59446C6.10464 3.00098 7.44845 1.67161 7.50075 1.63674C7.75908 1.47694 8.13643 1.45662 8.41204 1.59308Z" fill="#409EFF" stroke="#409EFF" stroke-width="0.3"/>
<path d="M9.47448 5.18716C9.43973 5.22165 9.42722 5.39937 9.42096 6.0331L9.41157 6.83666L8.08115 6.84455L6.75073 6.85245L6.4828 6.93459C5.85225 7.12284 5.40466 7.5233 5.19964 8.07489C5.14908 8.21563 5.14282 8.34293 5.14282 9.41688C5.14282 10.5705 5.14595 10.6023 5.20902 10.6739C5.33204 10.8145 5.43282 10.8569 5.63142 10.8569C5.83002 10.8569 5.93097 10.8145 6.05381 10.6739C6.11689 10.605 6.12001 10.5599 6.13582 9.45677L6.15163 8.31121L6.2399 8.16008C6.34085 7.98776 6.52051 7.83927 6.73179 7.75699C6.87045 7.70393 6.92726 7.7013 8.14735 7.69341L9.4147 7.68551V8.46219C9.4147 9.30814 9.42409 9.36382 9.58185 9.37975C9.6576 9.38779 9.80565 9.27365 10.783 8.47009C11.9369 7.52067 12 7.45709 12 7.25554C11.9968 7.0673 11.9086 6.97712 10.7767 6.04889C9.63208 5.11028 9.58169 5.07579 9.47448 5.18716Z" fill="#409EFF" stroke="#409EFF" stroke-width="0.3"/>
</svg>
