<svg xmlns="http://www.w3.org/2000/svg" width="76" height="66.5" viewBox="0 0 76 66.5">
    <path d="M52.25 5.75A4.75 4.75 0 0 1 57 1h9.5a4.75 4.75 0 0 1 4.75 4.75v57h2.375a2.375 2.375 0 0 1 0 4.75H2.375a2.375 2.375 0 0 1 0-4.75H4.75V48.5a4.75 4.75 0 0 1 4.75-4.75H19a4.75 4.75 0 0 1 4.75 4.75v14.25h4.75V29.5a4.75 4.75 0 0 1 4.75-4.75h9.5a4.75 4.75 0 0 1 4.75 4.75v33.25h4.75zm4.75 57h9.5v-57H57zm-14.25 0V29.5h-9.5v33.25zm-23.75 0V48.5H9.5v14.25z" transform="translate(0 -1)" style="fill:#1c3366"/>
</svg>
