<svg xmlns="http://www.w3.org/2000/svg" width="74" height="74" viewBox="0 0 74 74">
    <defs>
        <style>
            .cls-1{fill:#1c3366}
        </style>
    </defs>
    <g id="Group_23" data-name="Group 23" transform="translate(-808 -163)">
        <path id="calendar" class="cls-1" d="M16.188 0A2.313 2.313 0 0 1 18.5 2.313v2.312h37V2.313a2.312 2.312 0 1 1 4.625 0v2.312h4.625a9.25 9.25 0 0 1 9.25 9.25V64.75A9.25 9.25 0 0 1 64.75 74H9.25A9.25 9.25 0 0 1 0 64.75V13.875a9.25 9.25 0 0 1 9.25-9.25h4.625V2.313A2.312 2.312 0 0 1 16.188 0zM4.625 18.5v46.25a4.625 4.625 0 0 0 4.625 4.625h55.5a4.625 4.625 0 0 0 4.625-4.625V18.5z" transform="translate(808 163)"/>
        <path id="lightning" class="cls-1" d="M8.013.714A1 1 0 0 1 8.968 0h7.957a.995.995 0 0 1 .943 1.309l-3.542 10.626H21.9a.995.995 0 0 1 .786 1.605L8.759 31.442a.995.995 0 0 1-1.737-.9L10.6 18.9H3.995a.995.995 0 0 1-.955-1.275L8.013.714zm1.7 1.275L5.324 16.908h6.628a.995.995 0 0 1 .951 1.287l-2.383 7.744 9.345-12.014h-6.919a.995.995 0 0 1-.946-1.31l3.544-10.626z" transform="translate(833.908 191.714)"/>
    </g>
</svg>
