<svg id="chat-left-text" xmlns="http://www.w3.org/2000/svg" width="18" height="17.204" viewBox="0 0 18 17.204">
    <defs>
        <style>
            .cls-1{fill:#fff}
        </style>
    </defs>
    <path id="Path_1" data-name="Path 1" class="cls-1" d="M15.75 1.125a1.125 1.125 0 0 1 1.125 1.125v9a1.125 1.125 0 0 1-1.125 1.125H4.966a2.25 2.25 0 0 0-1.59.659l-2.25 2.25V2.25A1.125 1.125 0 0 1 2.25 1.125zM2.25 0A2.25 2.25 0 0 0 0 2.25v14.392a.563.563 0 0 0 .961.4l3.21-3.21a1.125 1.125 0 0 1 .8-.33H15.75A2.25 2.25 0 0 0 18 11.25v-9A2.25 2.25 0 0 0 15.75 0z"/>
    <path id="Path_2" data-name="Path 2" class="cls-1" d="M3 3.5a.557.557 0 0 1 .6-.5h10.8a.557.557 0 0 1 .6.5.557.557 0 0 1-.6.5H3.6a.557.557 0 0 1-.6-.5zM3 6a.557.557 0 0 1 .6-.5h10.8a.557.557 0 0 1 .6.5.557.557 0 0 1-.6.5H3.6A.557.557 0 0 1 3 6zm0 2.5a.557.557 0 0 1 .6-.5h6a.557.557 0 0 1 .6.5.557.557 0 0 1-.6.5h-6a.557.557 0 0 1-.6-.5z" transform="translate(0 .617)"/>
</svg>
