<svg xmlns="http://www.w3.org/2000/svg" width="18" height="18" viewBox="0 0 18 18">
    <path d="M0 9a9 9 0 1 1 9 9 9 9 0 0 1-9-9zm8.438-7.788A3.958 3.958 0 0 0 6.315 3.3a8.966 8.966 0 0 0-.526 1.2h2.649V1.212zM4.6 4.5a10.425 10.425 0 0 1 .72-1.731 7.537 7.537 0 0 1 .672-1.05A7.9 7.9 0 0 0 2.537 4.5zm-.653 3.938A15.415 15.415 0 0 1 4.3 5.625H1.883a7.828 7.828 0 0 0-.738 2.812h2.8zm1.506-2.813a14.062 14.062 0 0 0-.38 2.812h3.365V5.625zm4.11 0v2.813h3.364a14.057 14.057 0 0 0-.379-2.812zM5.074 9.563a14.062 14.062 0 0 0 .379 2.813h2.985V9.563zm4.489 0v2.813h2.985a14.01 14.01 0 0 0 .38-2.812zM5.788 13.5a8.959 8.959 0 0 0 .526 1.2 3.966 3.966 0 0 0 2.123 2.087V13.5zm.2 2.781a7.533 7.533 0 0 1-.672-1.05A10.426 10.426 0 0 1 4.6 13.5H2.537a7.9 7.9 0 0 0 3.456 2.781zM4.3 12.375a15.358 15.358 0 0 1-.351-2.812h-2.8a7.792 7.792 0 0 0 .738 2.813zm7.71 3.906a7.9 7.9 0 0 0 3.453-2.781H13.4a10.429 10.429 0 0 1-.72 1.731 7.524 7.524 0 0 1-.672 1.05zM9.563 13.5v3.288a3.958 3.958 0 0 0 2.122-2.088 8.96 8.96 0 0 0 .527-1.2H9.563zm4.14-1.125h2.414a7.792 7.792 0 0 0 .738-2.812h-2.8a15.356 15.356 0 0 1-.351 2.813zm3.152-3.937a7.829 7.829 0 0 0-.738-2.812H13.7a15.415 15.415 0 0 1 .351 2.813zm-4.176-5.669A10.412 10.412 0 0 1 13.4 4.5h2.064a7.9 7.9 0 0 0-3.456-2.781 7.636 7.636 0 0 1 .672 1.05zM12.212 4.5a8.962 8.962 0 0 0-.526-1.2 3.963 3.963 0 0 0-2.123-2.088V4.5z" style="fill:#fff"/>
</svg>
