<svg width="24" height="24" viewBox="0 0 24 24" fill="none" xmlns="http://www.w3.org/2000/svg">
    <mask id="glu1fwauda" style="mask-type:alpha" maskUnits="userSpaceOnUse" x="0" y="0" width="24" height="24">
        <path fill="#D9D9D9" d="M0 0h24v24H0z"/>
    </mask>
    <g mask="url(#glu1fwauda)">
        <path d="M5 19h1.4l8.625-8.625-1.4-1.4L5 17.6V19zM19.3 8.925l-4.25-4.2 1.4-1.4a1.92 1.92 0 0 1 1.413-.575c.558 0 1.029.192 1.412.575l1.4 1.4c.383.383.583.846.6 1.388a1.807 1.807 0 0 1-.55 1.387L19.3 8.925zM17.85 10.4 7.25 21H3v-4.25l10.6-10.6 4.25 4.25z" fill="#777"/>
    </g>
</svg>
