<svg width="21" height="20" viewBox="0 0 21 20" fill="none" xmlns="http://www.w3.org/2000/svg">
    <mask id="6zmj2nam2a" style="mask-type:alpha" maskUnits="userSpaceOnUse" x="0" y="0" width="21" height="20">
        <path fill="#D9D9D9" d="M.5 0h20v20H.5z"/>
    </mask>
    <g mask="url(#6zmj2nam2a)">
        <path d="M10.5 14.166c.236 0 .433-.08.593-.24.16-.159.24-.357.24-.593V10a.806.806 0 0 0-.24-.594.806.806 0 0 0-.594-.24.806.806 0 0 0-.593.24.806.806 0 0 0-.24.594v3.333c0 .236.08.434.24.594.16.16.357.24.593.24zm0-6.666c.236 0 .433-.08.593-.24.16-.16.24-.357.24-.593a.806.806 0 0 0-.24-.594.806.806 0 0 0-.594-.24.806.806 0 0 0-.593.24.806.806 0 0 0-.24.593c0 .237.08.435.24.594.16.16.357.24.593.24zm0 10.833a8.115 8.115 0 0 1-3.25-.656 8.415 8.415 0 0 1-2.646-1.781 8.416 8.416 0 0 1-1.782-2.646A8.115 8.115 0 0 1 2.166 10c0-1.153.219-2.236.656-3.25a8.415 8.415 0 0 1 1.782-2.646 8.415 8.415 0 0 1 2.645-1.781 8.115 8.115 0 0 1 3.25-.656c1.153 0 2.236.218 3.25.656a8.416 8.416 0 0 1 2.646 1.781 8.415 8.415 0 0 1 1.781 2.646 8.115 8.115 0 0 1 .657 3.25 8.115 8.115 0 0 1-.657 3.25 8.416 8.416 0 0 1-1.78 2.646 8.416 8.416 0 0 1-2.647 1.78 8.114 8.114 0 0 1-3.25.657z" fill="#777"/>
    </g>
</svg>
