<svg xmlns="http://www.w3.org/2000/svg" width="37.677" height="36.789" viewBox="0 0 37.677 36.789">
    <g data-name="Group 48">
        <path data-name="Path 37" d="M3463.688-403.453v6.016h32.4V-421.5" transform="translate(-3459.163 433.476)" style="fill:none;stroke:#777;stroke-linecap:round;stroke-width:1.5px"/>
        <path data-name="Line 24" transform="translate(3.226 29.476)" style="fill:none;stroke:#777;stroke-linecap:round;stroke-width:1.5px" d="M0 0h7.656"/>
        <path data-name="Line 25" transform="translate(10.882 25.1)" style="fill:none;stroke:#777;stroke-linecap:round;stroke-width:1.5px" d="M0 0h5.469"/>
        <path data-name="Line 26" transform="translate(16.351 20.726)" style="fill:none;stroke:#777;stroke-linecap:round;stroke-width:1.5px" d="M0 0h6.563"/>
        <path data-name="Line 27" transform="translate(22.913 16.351)" style="fill:none;stroke:#777;stroke-linecap:round;stroke-width:1.5px" d="M0 0h6.563"/>
        <path data-name="Line 28" transform="translate(29.476 11.976)" style="fill:none;stroke:#777;stroke-linecap:round;stroke-width:1.5px" d="M0 0h7.451"/>
        <path data-name="Line 29" transform="translate(10.882 25.1)" style="fill:none;stroke:#777;stroke-linecap:round;stroke-width:1.5px" d="M0 0v4.375"/>
        <path data-name="Line 30" transform="translate(16.351 20.726)" style="fill:none;stroke:#777;stroke-linecap:round;stroke-width:1.5px" d="M0 0v4.375"/>
        <path data-name="Line 31" transform="translate(22.913 16.351)" style="fill:none;stroke:#777;stroke-linecap:round;stroke-width:1.5px" d="M0 0v4.375"/>
        <path data-name="Line 32" transform="translate(29.476 11.976)" style="fill:none;stroke:#777;stroke-linecap:round;stroke-width:1.5px" d="M0 0v4.375"/>
        <path data-name="Path 38" d="M3464.938-414.875v10.185" transform="translate(-3459.046 434.096)" style="fill:none;stroke:#777;stroke-linecap:round;stroke-width:1.5px"/>
        <path data-name="Path 39" d="M3464.938-414.875v9.57" transform="translate(-3433.89 417.28)" style="fill:none;stroke:#777;stroke-linecap:round;stroke-width:1.5px"/>
        <path data-name="Line 33" transform="translate(1.038 1.038)" style="fill:none;stroke:#777;stroke-linecap:round;stroke-width:1.5px" d="M0 20.781 31.719 0"/>
    </g>
</svg>
