<svg xmlns="http://www.w3.org/2000/svg" width="35" height="35" viewBox="0 0 35 35">
    <defs>
        <style>
            .cls-2{fill:none;stroke:#777;stroke-width:2px}.cls-3{stroke:none}
        </style>
    </defs>
    <g id="Group_24" data-name="Group 24" transform="translate(-3937 -4195)">
        <g id="Path_5" data-name="Path 5" style="fill:none">
            <path class="cls-3" d="M5 0h25a2.946 2.946 0 0 1 3 2.889l2 20.222A2.946 2.946 0 0 1 32 26H3a2.946 2.946 0 0 1-3-2.889L2 2.889A2.946 2.946 0 0 1 5 0z" transform="translate(3937 4195)"/>
            <path d="M5 2c-.551 0-1 .399-1 .889v.099L2.003 23.18c.04.458.472.82.997.82h29c.525 0 .957-.362.997-.82L31 2.988v-.1c0-.49-.449-.888-1-.888H5m0-2h25c1.657 0 3 1.293 3 2.889l2 20.222C35 24.707 33.657 26 32 26H3c-1.657 0-3-1.293-3-2.889L2 2.89C2 1.293 3.343 0 5 0z" style="fill:#777;stroke:none" transform="translate(3937 4195)"/>
        </g>
        <path id="Line_12" data-name="Line 12" class="cls-2" transform="translate(3939.5 4205.208)" d="M0 0h30"/>
        <path id="Line_13" data-name="Line 13" class="cls-2" transform="translate(3938.5 4212.5)" d="M0 0h33"/>
        <path id="Line_14" data-name="Line 14" class="cls-2" transform="translate(3960 4196.5)" d="m0 0 2 24"/>
        <path id="Line_15" data-name="Line 15" class="cls-2" transform="translate(3947 4196.5)" d="M2 0 0 24"/>
        <g id="Rectangle_1789" data-name="Rectangle 1789" class="cls-2">
            <path class="cls-3" d="M2.5 0h6A2.5 2.5 0 0 1 11 2.5V6a1 1 0 0 1-1 1H1a1 1 0 0 1-1-1V2.5A2.5 2.5 0 0 1 2.5 0z" transform="translate(3949 4223)"/>
            <path d="M2.5 1h6A1.5 1.5 0 0 1 10 2.5V6H1V2.5A1.5 1.5 0 0 1 2.5 1z" style="fill:none" transform="translate(3949 4223)"/>
        </g>
        <path id="Line_16" data-name="Line 16" class="cls-2" transform="translate(3954.5 4220.672)" d="M0 0v4"/>
    </g>
</svg>
