<svg width="16" height="16" viewBox="0 0 16 16" fill="none" xmlns="http://www.w3.org/2000/svg">
    <mask id="n1zq6gllja" style="mask-type:alpha" maskUnits="userSpaceOnUse" x="0" y="0" width="16" height="16">
        <path fill="#D9D9D9" d="M0 0h16v16H0z"/>
    </mask>
    <g mask="url(#n1zq6gllja)">
        <path d="M3.333 14c-.366 0-.68-.13-.941-.392A1.284 1.284 0 0 1 2 12.666V3.333c0-.367.13-.68.392-.942.26-.26.575-.391.941-.391h2.8c.145-.4.386-.722.725-.967C7.198.79 7.578.667 8 .667c.422 0 .803.122 1.142.366.339.245.58.567.725.967h2.8c.366 0 .68.13.941.392.261.26.392.575.392.941v9.334c0 .366-.13.68-.392.941a1.284 1.284 0 0 1-.941.392H3.333zm0-1.334h9.334V3.333H3.333v9.333zm2-1.333h3.334a.645.645 0 0 0 .475-.191.645.645 0 0 0 .191-.476.645.645 0 0 0-.191-.475.645.645 0 0 0-.475-.191H5.333a.645.645 0 0 0-.475.191.645.645 0 0 0-.191.475c0 .19.064.348.191.476a.645.645 0 0 0 .475.191zm0-2.667h5.334a.645.645 0 0 0 .475-.191.645.645 0 0 0 .191-.475.645.645 0 0 0-.191-.475.645.645 0 0 0-.475-.192H5.333a.645.645 0 0 0-.475.192.645.645 0 0 0-.191.475c0 .189.064.347.191.475a.645.645 0 0 0 .475.191zm0-2.666h5.334a.645.645 0 0 0 .475-.192.645.645 0 0 0 .191-.475.645.645 0 0 0-.191-.475.645.645 0 0 0-.475-.191H5.333a.645.645 0 0 0-.475.191.645.645 0 0 0-.191.475c0 .19.064.347.191.475A.645.645 0 0 0 5.333 6zM8 2.833a.486.486 0 0 0 .5-.5.486.486 0 0 0-.5-.5.486.486 0 0 0-.5.5.486.486 0 0 0 .5.5z" fill="#409EFF"/>
    </g>
</svg>
