<svg width="24" height="24" viewBox="0 0 24 24" fill="none" xmlns="http://www.w3.org/2000/svg">
    <mask id="oixkmqrnta" style="mask-type:alpha" maskUnits="userSpaceOnUse" x="0" y="0" width="24" height="24">
        <path fill="#D9D9D9" d="M0 0h24v24H0z"/>
    </mask>
    <g mask="url(#oixkmqrnta)">
        <path d="M7.308 20.5c-.505 0-.933-.175-1.283-.525a1.745 1.745 0 0 1-.525-1.283V6h-.25a.726.726 0 0 1-.535-.215.726.726 0 0 1-.215-.535c0-.213.072-.39.215-.535A.726.726 0 0 1 5.25 4.5H9a.84.84 0 0 1 .263-.63.889.889 0 0 1 .64-.255h4.193c.251 0 .465.085.64.254A.84.84 0 0 1 15 4.5h3.75c.213 0 .391.072.535.215a.726.726 0 0 1 .215.535.726.726 0 0 1-.215.535.726.726 0 0 1-.535.215h-.25v12.692c0 .506-.175.933-.525 1.283-.35.35-.778.525-1.283.525H7.308zM7 6v12.692a.3.3 0 0 0 .087.221.3.3 0 0 0 .22.087h9.385a.3.3 0 0 0 .221-.087.3.3 0 0 0 .087-.22V6H7zm2.404 10.25c0 .213.072.391.215.535a.726.726 0 0 0 .535.215.726.726 0 0 0 .534-.215.726.726 0 0 0 .216-.535v-7.5a.726.726 0 0 0-.216-.535.726.726 0 0 0-.534-.215.726.726 0 0 0-.535.215.726.726 0 0 0-.215.535v7.5zm3.692 0c0 .213.072.391.216.535a.726.726 0 0 0 .534.215.726.726 0 0 0 .535-.215.726.726 0 0 0 .215-.535v-7.5a.726.726 0 0 0-.215-.535.726.726 0 0 0-.535-.215.726.726 0 0 0-.534.215.726.726 0 0 0-.216.535v7.5zM7 6v12.692a.3.3 0 0 0 .087.221.3.3 0 0 0 .22.087H7V6z" fill="#1C1B1F"/>
    </g>
</svg>
