<svg width="20" height="18" viewBox="0 0 20 18" fill="none" xmlns="http://www.w3.org/2000/svg">
    <path d="M14 18c-.55 0-1.02-.196-1.412-.587A1.926 1.926 0 0 1 12 16v-4c0-.55.196-1.02.588-1.412A1.926 1.926 0 0 1 14 10h4c.55 0 1.02.196 1.413.588.391.391.587.862.587 1.412v4c0 .55-.196 1.02-.587 1.413A1.926 1.926 0 0 1 18 18h-4zm0-2h4v-4h-4v4zM1 15a.967.967 0 0 1-.713-.287A.968.968 0 0 1 0 14c0-.283.096-.52.287-.713A.967.967 0 0 1 1 13h7c.283 0 .52.096.713.287.191.192.287.43.287.713s-.096.52-.287.713A.967.967 0 0 1 8 15H1zm13-7c-.55 0-1.02-.196-1.412-.588A1.926 1.926 0 0 1 12 6V2c0-.55.196-1.02.588-1.413A1.926 1.926 0 0 1 14 0h4c.55 0 1.02.196 1.413.588C19.803.979 20 1.45 20 2v4c0 .55-.196 1.02-.587 1.412A1.926 1.926 0 0 1 18 8h-4zm0-2h4V2h-4v4zM1 5a.968.968 0 0 1-.713-.287A.968.968 0 0 1 0 4c0-.283.096-.52.287-.712A.968.968 0 0 1 1 3h7c.283 0 .52.096.713.288.191.191.287.429.287.712s-.096.52-.287.713A.968.968 0 0 1 8 5H1z" fill="#409EFF"/>
</svg>
