<svg width="20" height="21" viewBox="0 0 20 21" fill="none" xmlns="http://www.w3.org/2000/svg">
    <mask id="m28y7r5msa" style="mask-type:alpha" maskUnits="userSpaceOnUse" x="0" y="0" width="20" height="21">
        <path fill="#D9D9D9" d="M0 .5h20v20H0z"/>
    </mask>
    <g mask="url(#m28y7r5msa)">
        <path d="M10 18c-1.75 0-3.299-.531-4.646-1.594-1.347-1.062-2.222-2.42-2.625-4.073a.618.618 0 0 1 .125-.573.811.811 0 0 1 .563-.302.906.906 0 0 1 .604.125c.18.111.305.278.375.5a5.545 5.545 0 0 0 2.062 3.063A5.701 5.701 0 0 0 10 16.333c1.625 0 3.004-.566 4.135-1.698 1.132-1.131 1.698-2.51 1.698-4.135s-.566-3.003-1.698-4.135C13.004 5.233 11.625 4.667 10 4.667c-.958 0-1.854.222-2.688.666a6.193 6.193 0 0 0-2.104 1.834h1.459c.236 0 .434.08.593.24.16.159.24.357.24.593s-.08.434-.24.594a.806.806 0 0 1-.593.24H3.333a.806.806 0 0 1-.593-.24A.806.806 0 0 1 2.5 8V4.667c0-.236.08-.434.24-.594.16-.16.357-.24.593-.24s.434.08.594.24c.16.16.24.358.24.594v1.125A7.276 7.276 0 0 1 6.76 3.729C7.781 3.243 8.861 3 10 3c1.042 0 2.017.198 2.927.594.91.396 1.702.93 2.375 1.604a7.623 7.623 0 0 1 1.604 2.375c.396.91.594 1.885.594 2.927a7.255 7.255 0 0 1-.594 2.927 7.623 7.623 0 0 1-1.604 2.375 7.623 7.623 0 0 1-2.375 1.604A7.255 7.255 0 0 1 10 18zm.833-7.833 2.084 2.083a.79.79 0 0 1 .229.583.79.79 0 0 1-.23.584.79.79 0 0 1-.583.229.79.79 0 0 1-.583-.23l-2.333-2.333a.832.832 0 0 1-.25-.604V7.167c0-.236.08-.434.24-.594.159-.16.357-.24.593-.24s.434.08.594.24c.16.16.24.358.24.594v3z" fill="#1C3366"/>
    </g>
</svg>
