<svg width="24" height="16" viewBox="0 0 24 16" fill="none" xmlns="http://www.w3.org/2000/svg">
<path d="M7.46967 2C7.35726 2.00016 7.24633 2.02559 7.14507 2.0744C7.04381 2.12321 6.95482 2.19416 6.88467 2.282L2.30967 8H8.99967C9.19858 8 9.38935 8.07902 9.53 8.21967C9.67066 8.36032 9.74967 8.55109 9.74967 8.75C9.74967 9.34674 9.98672 9.91903 10.4087 10.341C10.8306 10.7629 11.4029 11 11.9997 11C12.5964 11 13.1687 10.7629 13.5907 10.341C14.0126 9.91903 14.2497 9.34674 14.2497 8.75C14.2497 8.55109 14.3287 8.36032 14.4693 8.21967C14.61 8.07902 14.8008 8 14.9997 8H21.6897L17.1147 2.282C17.0445 2.19416 16.9555 2.12321 16.8543 2.0744C16.753 2.02559 16.6421 2.00016 16.5297 2H7.46967ZM5.71467 1.3445C5.92525 1.08125 6.19229 0.868692 6.49606 0.72252C6.79983 0.576347 7.13256 0.500301 7.46967 0.5H16.5297C16.8668 0.500301 17.1995 0.576347 17.5033 0.72252C17.8071 0.868692 18.0741 1.08125 18.2847 1.3445L23.8347 8.282C23.8973 8.36016 23.9436 8.45006 23.9709 8.54642C23.9982 8.64277 24.006 8.74361 23.9937 8.843L23.4087 13.529C23.3406 14.0733 23.0761 14.5741 22.6648 14.937C22.2535 15.3 21.7237 15.5002 21.1752 15.5H2.82417C2.27561 15.5002 1.74586 15.3 1.33455 14.937C0.923235 14.5741 0.658695 14.0733 0.590673 13.529L0.00567313 8.843C-0.00662125 8.74361 0.00111377 8.64277 0.0284219 8.54642C0.05573 8.45006 0.102058 8.36016 0.164673 8.282L5.71467 1.3445Z" fill="#222222"/>
</svg>
