<svg width="20" height="20" viewBox="0 0 20 20" fill="none" xmlns="http://www.w3.org/2000/svg">
    <mask id="5ni0ae0ota" style="mask-type:alpha" maskUnits="userSpaceOnUse" x="0" y="0" width="20" height="20">
        <path fill="#D9D9D9" d="M0 0h20v20H0z"/>
    </mask>
    <g mask="url(#5ni0ae0ota)">
        <path d="M3.416 16.667c-.481 0-.893-.172-1.236-.515a1.685 1.685 0 0 1-.514-1.235V5.083c0-.481.171-.893.514-1.236a1.685 1.685 0 0 1 1.236-.514h13.167c.48 0 .893.172 1.236.514.342.343.514.755.514 1.236v9.834c0 .48-.172.893-.514 1.236a1.685 1.685 0 0 1-1.236.514H3.416zm13.167-9.834-6.127 3.814c-.068.04-.14.075-.217.103a.695.695 0 0 1-.24.042.786.786 0 0 1-.458-.146L3.416 6.833v8.084h13.167V6.833zM9.999 9.208l6.625-4.125H3.395L10 9.208zM3.416 6.833v.205-1.262.016-.006 1.256-.209z" fill="#777"/>
    </g>
</svg>
