<svg width="24" height="24" viewBox="0 0 24 24" fill="none" xmlns="http://www.w3.org/2000/svg">
<g clip-path="url(#clip0_10529_379)">
<path d="M15.4651 21.2961C15.3886 21.675 15.2542 22.0227 15.0599 22.3411C14.8594 22.6672 14.5969 22.9621 14.2745 23.22C13.95 23.4778 13.5986 23.6731 13.2162 23.8039C12.8338 23.9348 12.4286 23.9993 12.0008 23.9993C11.5708 23.9993 11.1657 23.9328 10.7854 23.8039C10.405 23.6731 10.0516 23.4797 9.72913 23.22C9.40461 22.9602 9.14417 22.6672 8.94367 22.3411C8.74317 22.0149 8.60674 21.6555 8.53233 21.261C8.49513 21.0696 8.63155 20.886 8.83412 20.8508C8.84032 20.8508 8.90026 20.845 8.90026 20.845H15.1054C15.3121 20.845 15.4816 21.0032 15.4816 21.2004C15.4795 21.2336 15.4733 21.2649 15.4651 21.2961ZM4.17715 0.0480835C4.55541 -0.0944946 4.98328 0.0812866 5.13417 0.438709C5.28507 0.79613 5.09904 1.20043 4.72077 1.34301C3.90224 1.6516 3.21599 2.07933 2.66824 2.63402C2.12255 3.18871 1.71121 3.87621 1.4425 4.70238C1.32262 5.06957 0.909215 5.2766 0.520618 5.16332C0.132021 5.05004 -0.0870818 4.65941 0.0328046 4.29222C0.369726 3.25707 0.890612 2.38988 1.58719 1.68285C2.28377 0.977771 3.14985 0.434802 4.17715 0.0480835ZM19.2787 1.34301C18.9004 1.20043 18.7144 0.79613 18.8653 0.438709C19.0162 0.0812866 19.4441 -0.0944946 19.8223 0.0480835C20.8496 0.434802 21.7157 0.977771 22.4123 1.6848C23.1089 2.39379 23.6318 3.26097 23.9667 4.29418C24.0865 4.66137 23.8674 5.05199 23.4788 5.16527C23.0903 5.27855 22.6768 5.07152 22.557 4.70433C22.2883 3.87621 21.8769 3.18871 21.3312 2.63597C20.7835 2.07933 20.0972 1.6516 19.2787 1.34301ZM13.9768 2.05785C14.2807 2.13207 14.5763 2.22386 14.8636 2.33129C15.2852 2.48949 15.6904 2.67894 16.079 2.89965C16.0934 2.90941 16.11 2.91722 16.1244 2.92699C16.4965 3.14379 16.8438 3.38207 17.1621 3.63988C17.4969 3.91136 17.807 4.21019 18.0964 4.53832L18.0984 4.54027C18.3816 4.86254 18.6338 5.20824 18.857 5.57347C19.0803 5.94066 19.2725 6.32348 19.4317 6.71801C19.5949 7.12621 19.7169 7.54223 19.7996 7.96996C19.8802 8.39965 19.9215 8.8391 19.9215 9.29027C19.9215 10.1809 19.9215 10.6633 19.9215 10.7219C19.9236 11.1789 19.9257 11.6262 19.9298 12.0618V12.0657C19.9319 12.4602 19.9587 12.8567 20.0104 13.2532C20.0621 13.6457 20.1365 14.0246 20.2337 14.3899C20.3308 14.7493 20.4631 15.0969 20.6264 15.4289C20.7959 15.7707 21.0026 16.1067 21.2444 16.4328H21.2465C21.4863 16.7532 21.786 17.0715 22.1456 17.384C22.5177 17.7063 22.9476 18.0246 23.4396 18.3332C23.7207 18.511 23.7972 18.8723 23.607 19.1379C23.4892 19.3039 23.2949 19.3957 23.0965 19.3957V19.3977H17.5465H12.0008H6.45086H0.903014C0.561958 19.3977 0.287046 19.1379 0.287046 18.8157C0.287046 18.6047 0.406933 18.4192 0.584695 18.3176C1.08284 17.9993 1.51071 17.6828 1.86831 17.3703C2.22383 17.0598 2.52148 16.7414 2.76125 16.4133C2.76745 16.4036 2.77572 16.3938 2.78399 16.386C3.01549 16.0657 3.21393 15.7395 3.37722 15.4075C3.54465 15.0696 3.679 14.7219 3.77822 14.3645C3.78029 14.3567 3.78235 14.3489 3.78442 14.343C3.8795 13.9953 3.95185 13.6282 4.00146 13.2434C4.05106 12.8567 4.07793 12.4563 4.07793 12.0442V9.29027C4.07793 8.84691 4.11927 8.40746 4.20402 7.96801C4.28877 7.53051 4.41072 7.11058 4.57402 6.71019C4.73524 6.3098 4.92954 5.92504 5.15484 5.55785C5.37808 5.19262 5.63439 4.84691 5.9217 4.51879L5.92584 4.51488C6.21108 4.19262 6.52527 3.89183 6.86633 3.61644C7.20325 3.34496 7.56704 3.09691 7.9577 2.87621C8.3525 2.65355 8.76177 2.46605 9.18344 2.31371C9.47695 2.20824 9.7808 2.12035 10.0909 2.04808C10.1963 1.69847 10.3782 1.41527 10.6365 1.19847C10.9921 0.899646 11.4592 0.751209 12.04 0.757068C12.6147 0.760974 13.0797 0.911365 13.4311 1.21019C13.6874 1.42894 13.8714 1.71019 13.9768 2.05785ZM14.4171 3.41136C14.076 3.28441 13.7288 3.1848 13.3753 3.11254C13.1025 3.07933 12.8792 2.87621 12.8441 2.60668C12.811 2.35277 12.7346 2.17504 12.6126 2.07347C12.4906 1.97191 12.2963 1.91918 12.0297 1.91722C11.7631 1.91527 11.5708 1.9641 11.453 2.06371C11.3331 2.16527 11.2566 2.34496 11.2256 2.60277C11.1967 2.84887 11.0003 3.0598 10.7275 3.10668C10.3451 3.17504 9.9751 3.27269 9.61751 3.4016C9.25992 3.52855 8.91886 3.68676 8.58814 3.8723C8.25949 4.05785 7.9515 4.26683 7.66626 4.49926C7.38101 4.72972 7.11437 4.98363 6.87046 5.26097C6.63069 5.53441 6.41572 5.82933 6.22349 6.14183C6.03539 6.45043 5.87003 6.77855 5.72947 7.12621C5.58892 7.47191 5.48557 7.82347 5.41735 8.17504C5.34914 8.52855 5.31607 8.9016 5.31607 9.29223V12.0461C5.31607 12.5032 5.28713 12.9485 5.23132 13.386C5.17551 13.8059 5.09283 14.2239 4.97915 14.636C4.97708 14.6457 4.97501 14.6536 4.97295 14.6633C4.85513 15.0832 4.69597 15.4953 4.49547 15.9016C4.30117 16.2942 4.06967 16.675 3.80302 17.0442C3.79475 17.0559 3.78649 17.0676 3.77822 17.0793C3.49711 17.4621 3.13951 17.843 2.70751 18.2219L2.69097 18.2356H6.45706H12.007H17.5486H21.3085C20.8868 17.8684 20.5313 17.4895 20.2419 17.1028V17.1008C19.9587 16.718 19.7169 16.3254 19.5164 15.9231C19.3118 15.5129 19.1547 15.0969 19.041 14.6789V14.677C18.9294 14.261 18.8446 13.8332 18.7888 13.3957C18.7351 12.9778 18.7061 12.5364 18.7041 12.0735V12.0715C18.6999 11.6399 18.6979 11.1907 18.6958 10.7219C18.6917 9.85473 18.6917 9.38207 18.6917 9.29027C18.6917 8.90746 18.6586 8.53441 18.5883 8.17308C18.5201 7.81371 18.4188 7.46605 18.2845 7.13012V7.12816C18.146 6.78246 17.9827 6.45629 17.7966 6.14965C17.6106 5.84301 17.3957 5.55199 17.1538 5.27465C16.914 5.00316 16.6515 4.75121 16.3663 4.51879C16.0893 4.29418 15.7958 4.09301 15.4878 3.91137C15.4733 3.90551 15.4609 3.89769 15.4465 3.88988C15.1116 3.70433 14.7685 3.54418 14.4171 3.41136Z" fill="#777777"/>
</g>
<defs>
<clipPath id="clip0_10529_379">
<rect width="24" height="24" fill="white"/>
</clipPath>
</defs>
</svg>
