<svg width="24" height="24" viewBox="0 0 24 24" fill="none" xmlns="http://www.w3.org/2000/svg">
<path fill-rule="evenodd" clip-rule="evenodd" d="M5.78033 0.21967C5.63968 0.0790176 5.44891 0 5.25 0C5.05109 0 4.86032 0.0790176 4.71967 0.21967C4.57902 0.360322 4.5 0.551088 4.5 0.75V1.5H3C2.20435 1.5 1.44129 1.81607 0.87868 2.37868C0.316071 2.94129 0 3.70435 0 4.5V21C0 21.7956 0.316071 22.5587 0.87868 23.1213C1.44129 23.6839 2.20435 24 3 24H21C21.7956 24 22.5587 23.6839 23.1213 23.1213C23.6839 22.5587 24 21.7956 24 21V4.5C24 3.70435 23.6839 2.94129 23.1213 2.37868C22.5587 1.81607 21.7956 1.5 21 1.5H19.5V0.75C19.5 0.551088 19.421 0.360322 19.2803 0.21967C19.1397 0.0790176 18.9489 0 18.75 0C18.5511 0 18.3603 0.0790176 18.2197 0.21967C18.079 0.360322 18 0.551088 18 0.75V1.5H6V0.75C6 0.551088 5.92098 0.360322 5.78033 0.21967ZM1.5 21V6H22.5V21C22.5 21.3978 22.342 21.7794 22.0607 22.0607C21.7794 22.342 21.3978 22.5 21 22.5H3C2.60218 22.5 2.22064 22.342 1.93934 22.0607C1.65804 21.7794 1.5 21.3978 1.5 21ZM16.7197 9.21967C16.579 9.36032 16.5 9.55109 16.5 9.75V11.25C16.5 11.4489 16.579 11.6397 16.7197 11.7803C16.8603 11.921 17.0511 12 17.25 12H18.75C18.9489 12 19.1397 11.921 19.2803 11.7803C19.421 11.6397 19.5 11.4489 19.5 11.25V9.75C19.5 9.55109 19.421 9.36032 19.2803 9.21967C19.1397 9.07902 18.9489 9 18.75 9H17.25C17.0511 9 16.8603 9.07902 16.7197 9.21967Z" fill="#777777"/>
</svg>
