<svg width="16" height="16" viewBox="0 0 16 16" fill="none" xmlns="http://www.w3.org/2000/svg">
    <mask id="guy5sxsj5a" style="mask-type:alpha" maskUnits="userSpaceOnUse" x="0" y="0" width="16" height="16">
        <path fill="#D9D9D9" d="M0 0h16v16H0z"/>
    </mask>
    <g mask="url(#guy5sxsj5a)">
        <path d="M11.334 14c-.367 0-.68-.13-.942-.392a1.284 1.284 0 0 1-.391-.941V12H8.667c-.366 0-.68-.13-.941-.392a1.284 1.284 0 0 1-.392-.941V5.333H6.001V6c0 .367-.13.68-.392.942a1.284 1.284 0 0 1-.942.391h-2c-.366 0-.68-.13-.941-.391A1.284 1.284 0 0 1 1.334 6V3.333c0-.366.13-.68.392-.941C1.986 2.13 2.3 2 2.667 2h2c.367 0 .68.13.942.392.261.26.392.575.392.941V4h4v-.667c0-.366.13-.68.391-.941.261-.261.575-.392.942-.392h2c.367 0 .68.13.942.392.26.26.391.575.391.941V6c0 .367-.13.68-.391.942a1.284 1.284 0 0 1-.942.391h-2c-.367 0-.68-.13-.942-.391A1.284 1.284 0 0 1 10.001 6v-.667H8.667v5.334h1.334V10c0-.367.13-.68.391-.942.261-.26.575-.391.942-.391h2c.367 0 .68.13.942.391.26.261.391.575.391.942v2.667c0 .366-.13.68-.391.941a1.284 1.284 0 0 1-.942.392h-2zm0-8h2V3.333h-2V6zm0 6.667h2V10h-2v2.667zM2.667 6h2V3.333h-2V6z" fill="#fff"/>
    </g>
</svg>
