<svg width="24" height="24" viewBox="0 0 24 24" fill="none" xmlns="http://www.w3.org/2000/svg">
    <mask id="n12sbth8ba" style="mask-type:alpha" maskUnits="userSpaceOnUse" x="0" y="0" width="24" height="24">
        <path fill="#D9D9D9" d="M0 0h24v24H0z"/>
    </mask>
    <g mask="url(#n12sbth8ba)">
        <path d="M12 18.75a.725.725 0 0 1-.535-.216.726.726 0 0 1-.215-.534v-5.25H6a.726.726 0 0 1-.534-.216A.726.726 0 0 1 5.25 12c0-.213.072-.391.216-.535A.726.726 0 0 1 6 11.25h5.25V6c0-.213.072-.39.216-.534A.726.726 0 0 1 12 5.25c.213 0 .391.072.535.216A.726.726 0 0 1 12.75 6v5.25H18c.212 0 .39.072.534.216a.726.726 0 0 1 .216.534c0 .213-.072.391-.216.535a.726.726 0 0 1-.534.215h-5.25V18c0 .212-.072.39-.216.534a.726.726 0 0 1-.534.216z" fill="#409EFF"/>
    </g>
</svg>
