<svg width="20" height="20" viewBox="0 0 20 20" fill="none" xmlns="http://www.w3.org/2000/svg">
    <mask id="8sac74zsva" style="mask-type:alpha" maskUnits="userSpaceOnUse" x="0" y="0" width="20" height="20">
        <path fill="#D9D9D9" d="M0 0h20v20H0z"/>
    </mask>
    <g mask="url(#8sac74zsva)">
        <path d="M16.625 17.5c-1.792 0-3.538-.4-5.24-1.198a15.89 15.89 0 0 1-7.687-7.687C2.899 6.913 2.5 5.167 2.5 3.375c0-.25.083-.458.25-.625a.848.848 0 0 1 .625-.25H6.75a.8.8 0 0 1 .52.188.733.733 0 0 1 .272.479l.541 2.916c.028.195.025.372-.01.532a.853.853 0 0 1-.24.427l-2.02 2.041c.583 1 1.315 1.938 2.197 2.813.882.875 1.851 1.632 2.907 2.27l1.958-1.958c.125-.125.288-.218.49-.28.201-.063.399-.08.593-.053l2.875.583a.847.847 0 0 1 .48.282.76.76 0 0 1 .187.51v3.375c0 .25-.083.458-.25.625a.848.848 0 0 1-.625.25zM5.021 7.5l1.375-1.375-.354-1.958H4.188c.069.57.166 1.132.291 1.687.125.556.306 1.104.542 1.646zm10.812 8.292v-1.834l-1.958-.396-1.396 1.396a10.345 10.345 0 0 0 3.354.834z" fill="#777"/>
    </g>
</svg>
