<svg width="21" height="20" viewBox="0 0 21 20" fill="none" xmlns="http://www.w3.org/2000/svg">
    <g clip-path="url(#94rx3jdxca)" fill="#999">
        <path d="M7.87 3.333H4.226a.39.39 0 0 0-.391.391v.912h4.427v-.912a.39.39 0 0 0-.39-.39zM16.97 7.057a.391.391 0 0 0-.391 0l-3.865 2.26V7.397a.391.391 0 0 0-.588-.333L8.261 9.319V5.417H3.834v10.859a.39.39 0 0 0 .39.39h12.552a.39.39 0 0 0 .391-.39v-8.88a.391.391 0 0 0-.196-.34zm-7.146 6.86a.39.39 0 0 1-.39.39H7.87a.39.39 0 0 1-.391-.39v-1.56a.39.39 0 0 1 .39-.391h1.563a.39.39 0 0 1 .391.39v1.56zm4.453 0a.39.39 0 0 1-.39.39h-1.563a.39.39 0 0 1-.39-.39v-1.56a.39.39 0 0 1 .39-.391h1.563a.39.39 0 0 1 .39.39v1.56z"/>
    </g>
    <defs>
        <clipPath id="94rx3jdxca">
            <path fill="#fff" transform="translate(.5)" d="M0 0h20v20H0z"/>
        </clipPath>
    </defs>
</svg>
