<svg width="16" height="16" viewBox="0 0 16 16" fill="none" xmlns="http://www.w3.org/2000/svg">
    <mask id="mj2uiajyta" style="mask-type:alpha" maskUnits="userSpaceOnUse" x="0" y="0" width="16" height="16">
        <path fill="#D9D9D9" d="M0 0h16v16H0z"/>
    </mask>
    <g mask="url(#mj2uiajyta)">
        <path d="M6 12h4a.645.645 0 0 0 .474-.192.645.645 0 0 0 .192-.475.645.645 0 0 0-.192-.475.645.645 0 0 0-.475-.191H6a.645.645 0 0 0-.475.191.645.645 0 0 0-.191.475c0 .19.064.348.191.475A.645.645 0 0 0 6 12zm0-2.667h4a.645.645 0 0 0 .474-.191.645.645 0 0 0 .192-.475.645.645 0 0 0-.192-.475A.645.645 0 0 0 10 8H6a.645.645 0 0 0-.475.192.645.645 0 0 0-.191.475c0 .188.064.347.191.475A.645.645 0 0 0 6 9.333zm-2 5.334c-.367 0-.681-.131-.942-.392a1.284 1.284 0 0 1-.392-.942V2.667c0-.367.13-.681.392-.942.26-.261.575-.392.941-.392h4.784a1.317 1.317 0 0 1 .933.384l3.233 3.233a1.318 1.318 0 0 1 .383.933v7.45c0 .367-.13.68-.391.942a1.284 1.284 0 0 1-.942.392H4zm4.666-9.334V2.667H3.999v10.666h8V6H9.333a.645.645 0 0 1-.475-.192.645.645 0 0 1-.192-.475z" fill="#fff"/>
    </g>
</svg>
