<svg width="24" height="24" viewBox="0 0 24 24" fill="none" xmlns="http://www.w3.org/2000/svg">
    <mask id="selucvd9sa" style="mask-type:alpha" maskUnits="userSpaceOnUse" x="0" y="0" width="24" height="24">
        <path fill="#D9D9D9" d="M0 0h24v24H0z"/>
    </mask>
    <g mask="url(#selucvd9sa)">
        <path d="M12 21.6c-1.8 0-3.25-.263-4.35-.788C6.55 20.288 6 19.6 6 18.75c0-.533.233-1.008.7-1.425.467-.417 1.133-.75 2-1l.5 1.725a8.171 8.171 0 0 0-.813.325c-.208.1-.404.233-.587.4.133.233.65.463 1.55.688a10.9 10.9 0 0 0 5.375 0c.883-.226 1.375-.48 1.475-.763a4.523 4.523 0 0 0-.662-.4 4.935 4.935 0 0 0-.738-.275l.5-1.725c.867.25 1.533.587 2 1.012.467.425.7.905.7 1.438 0 .85-.55 1.538-1.65 2.063-1.1.524-2.55.787-4.35.787zm0-6.3c.317-.567.637-1.075.963-1.525.325-.45.645-.892.962-1.325.617-.817 1.096-1.508 1.438-2.075.341-.567.512-1.333.512-2.3 0-1.1-.37-2.02-1.113-2.762C14.021 4.57 13.1 4.2 12 4.2s-2.02.37-2.762 1.113c-.742.741-1.113 1.662-1.113 2.762 0 .967.17 1.733.512 2.3.342.567.821 1.258 1.438 2.075.317.433.642.875.975 1.325.333.45.65.958.95 1.525zm0 3.3a.842.842 0 0 1-.475-.15.72.72 0 0 1-.3-.425c-.383-1.15-.846-2.104-1.387-2.862A63.67 63.67 0 0 0 8.225 13c-.7-.9-1.192-1.72-1.475-2.463-.283-.741-.425-1.562-.425-2.462 0-1.617.542-2.967 1.625-4.05C9.033 2.942 10.383 2.4 12 2.4s2.967.542 4.05 1.625c1.083 1.083 1.625 2.433 1.625 4.05 0 .9-.137 1.72-.413 2.463-.274.741-.762 1.562-1.462 2.462-.517.683-1.05 1.4-1.6 2.15s-1.017 1.7-1.4 2.85a.94.94 0 0 1-.313.438.78.78 0 0 1-.487.162zm0-8.5c.567 0 1.046-.196 1.438-.587.391-.392.587-.871.587-1.438s-.196-1.05-.588-1.45c-.391-.4-.87-.6-1.437-.6-.567 0-1.046.2-1.438.6-.391.4-.587.883-.587 1.45s.196 1.046.588 1.438c.391.391.87.587 1.437.587z" fill="#222"/>
    </g>
</svg>
