<svg width="20" height="20" viewBox="0 0 20 20" fill="none" xmlns="http://www.w3.org/2000/svg">
    <mask id="m3tv6xp47a" style="mask-type:alpha" maskUnits="userSpaceOnUse" x="0" y="0" width="20" height="20">
        <path fill="#D9D9D9" d="M0 0h20v20H0z"/>
    </mask>
    <g mask="url(#m3tv6xp47a)">
        <path d="M10 18c-1.5 0-2.708-.219-3.625-.656C5.458 16.906 5 16.334 5 15.625c0-.444.194-.84.583-1.188.39-.347.945-.624 1.667-.833l.417 1.438a6.806 6.806 0 0 0-.677.27 2.037 2.037 0 0 0-.49.334c.111.194.542.385 1.292.573a9.089 9.089 0 0 0 4.479 0c.736-.188 1.146-.4 1.229-.636a3.758 3.758 0 0 0-.552-.333 4.116 4.116 0 0 0-.615-.23l.417-1.437c.722.209 1.278.49 1.667.844s.583.754.583 1.198c0 .708-.458 1.281-1.375 1.719C12.708 17.78 11.5 18 10 18zm0-5.25c.264-.472.531-.896.802-1.27.27-.376.538-.744.802-1.105a20.91 20.91 0 0 0 1.198-1.73c.285-.471.427-1.11.427-1.916 0-.917-.309-1.684-.927-2.302C11.684 3.81 10.917 3.5 10 3.5s-1.684.309-2.302.927c-.618.618-.927 1.386-.927 2.302 0 .806.142 1.445.427 1.917.285.472.684 1.048 1.198 1.729.264.361.535.73.812 1.104.278.375.542.799.792 1.271zm0 2.75a.702.702 0 0 1-.396-.125.6.6 0 0 1-.25-.354c-.32-.959-.705-1.754-1.156-2.386-.451-.631-.9-1.232-1.344-1.802-.583-.75-.993-1.434-1.229-2.052a5.708 5.708 0 0 1-.354-2.052c0-1.347.451-2.472 1.354-3.375S8.653 2 10 2s2.472.451 3.375 1.354 1.354 2.028 1.354 3.375c0 .75-.114 1.434-.344 2.052-.229.618-.635 1.302-1.218 2.052-.43.57-.875 1.167-1.334 1.792-.458.625-.847 1.417-1.166 2.375a.784.784 0 0 1-.26.365.65.65 0 0 1-.407.135zm0-7.083a1.63 1.63 0 0 0 1.198-.49 1.63 1.63 0 0 0 .49-1.198c0-.472-.164-.875-.49-1.208A1.612 1.612 0 0 0 10 5.02c-.472 0-.872.167-1.198.5-.326.333-.49.736-.49 1.208s.164.872.49 1.198c.326.326.726.49 1.198.49z" fill="#777"/>
    </g>
</svg>
