<svg width="12" height="14" viewBox="0 0 12 14" fill="none" xmlns="http://www.w3.org/2000/svg">
    <path d="M7.604 11c-.447 0-.826-.154-1.137-.463A1.535 1.535 0 0 1 6 9.404c0-.447.155-.826.463-1.137A1.535 1.535 0 0 1 7.597 7.8c.447 0 .826.154 1.137.463.31.308.466.686.466 1.133 0 .447-.154.826-.463 1.137A1.535 1.535 0 0 1 7.604 11zM1.6 13.4c-.33 0-.612-.12-.847-.358A1.161 1.161 0 0 1 .4 12.2V3.4c0-.322.118-.603.353-.842S1.27 2.2 1.6 2.2h1.2v-1c0-.17.058-.313.172-.428A.575.575 0 0 1 3.397.6c.169 0 .312.057.428.172A.576.576 0 0 1 4 1.2v1h4v-1c0-.17.058-.313.172-.428A.575.575 0 0 1 8.597.6c.169 0 .312.057.428.172A.576.576 0 0 1 9.2 1.2v1h1.2c.33 0 .613.12.848.358.235.24.352.52.352.842v8.8c0 .322-.117.603-.352.842a1.146 1.146 0 0 1-.848.358H1.6zm0-1.2h8.8v-6H1.6v6zm0-7.2h8.8V3.4H1.6V5z" fill="#777"/>
</svg>
