<svg width="19" height="20" viewBox="0 0 19 20" fill="none" xmlns="http://www.w3.org/2000/svg">
<g id="Priority">
<path id="Vector" d="M16.9725 0.10625C17.0578 0.163297 17.1277 0.240462 17.1761 0.330933C17.2245 0.421403 17.2499 0.522398 17.25 0.625V10C17.25 10.1248 17.2126 10.2468 17.1426 10.3501C17.0727 10.4535 16.9734 10.5336 16.8575 10.58L16.8537 10.5813L16.8463 10.585L16.8175 10.5963C16.6532 10.6616 16.4877 10.7241 16.3212 10.7837C15.9913 10.9025 15.5325 11.0625 15.0125 11.2213C13.9925 11.5363 12.6637 11.875 11.625 11.875C10.5662 11.875 9.69 11.525 8.9275 11.2188L8.8925 11.2063C8.1 10.8875 7.425 10.625 6.625 10.625C5.75 10.625 4.5775 10.9125 3.57875 11.2213C3.13157 11.3606 2.68847 11.5128 2.25 11.6775V19.375C2.25 19.5408 2.18415 19.6997 2.06694 19.8169C1.94973 19.9342 1.79076 20 1.625 20C1.45924 20 1.30027 19.9342 1.18306 19.8169C1.06585 19.6997 1 19.5408 1 19.375V0.625C1 0.45924 1.06585 0.300269 1.18306 0.183058C1.30027 0.065848 1.45924 0 1.625 0C1.79076 0 1.94973 0.065848 2.06694 0.183058C2.18415 0.300269 2.25 0.45924 2.25 0.625V0.9775C2.5325 0.87875 2.87 0.765 3.2375 0.6525C4.2575 0.34 5.5875 0 6.625 0C7.675 0 8.53 0.34625 9.27625 0.64875L9.33 0.67125C10.1075 0.985 10.785 1.25 11.625 1.25C12.5 1.25 13.6725 0.9625 14.6713 0.65375C15.2404 0.476015 15.8028 0.27755 16.3575 0.05875L16.3813 0.05L16.3862 0.0475H16.3875M16 1.52625C15.725 1.62375 15.4 1.735 15.0425 1.845C14.03 2.16 12.7025 2.49875 11.625 2.49875C10.5175 2.49875 9.635 2.14125 8.87125 1.83125L8.86125 1.8275C8.0775 1.5125 7.42375 1.25 6.625 1.25C5.78875 1.25 4.6175 1.53625 3.60625 1.8475C3.15014 1.98823 2.69789 2.1412 2.25 2.30625V10.3475C2.525 10.25 2.85 10.1388 3.2075 10.0287C4.22 9.7125 5.5475 9.375 6.625 9.375C7.68375 9.375 8.56 9.725 9.3225 10.0312L9.3575 10.0437C10.15 10.3625 10.825 10.625 11.625 10.625C12.46 10.625 13.6325 10.3388 14.6438 10.0275C15.0999 9.88676 15.5521 9.73379 16 9.56875V1.5275V1.52625Z" fill="#999999"/>
</g>
</svg>
