<svg width="24" height="24" viewBox="0 0 24 24" fill="none" xmlns="http://www.w3.org/2000/svg">
    <mask id="45rbcxa1ja" style="mask-type:alpha" maskUnits="userSpaceOnUse" x="0" y="0" width="24" height="24">
        <path fill="#D9D9D9" d="M0 0h24v24H0z"/>
    </mask>
    <g mask="url(#45rbcxa1ja)">
        <path d="M7.959 18H4.04a.999.999 0 0 1-.729-.313A1.009 1.009 0 0 1 3 16.95c0-.283.104-.53.313-.738a.999.999 0 0 1 .728-.312H7.96c.277 0 .52.104.729.312.208.209.312.455.312.738s-.104.53-.313.738A.999.999 0 0 1 7.96 18zm11.994-9.9H4.046c-.281 0-.526-.104-.734-.313A1.009 1.009 0 0 1 3 7.05c0-.283.104-.53.313-.737.208-.209.453-.313.734-.313h15.905c.282 0 .527.104.735.313.209.208.313.454.313.737s-.104.53-.313.737a1.006 1.006 0 0 1-.735.313zm-6 4.95H4.047c-.28 0-.525-.104-.734-.313A1.009 1.009 0 0 1 3 12c0-.283.104-.53.313-.738.208-.208.452-.312.733-.312h9.908c.28 0 .525.104.733.313.209.208.313.454.313.737s-.104.53-.313.738a1.004 1.004 0 0 1-.733.312z" fill="#222"/>
    </g>
</svg>
