<svg xmlns="http://www.w3.org/2000/svg" width="20.883" height="20.883" viewBox="0 0 20.883 20.883">
    <path data-name="Path 117" d="M12.414 3.719A.719.719 0 0 0 11.7 3H2.156A2.156 2.156 0 0 0 0 5.156v14.375a2.156 2.156 0 0 0 2.156 2.156h14.375a2.156 2.156 0 0 0 2.156-2.156V9.992a.719.719 0 0 0-1.437 0v9.539a.719.719 0 0 1-.719.719H2.156a.719.719 0 0 1-.719-.719V5.156a.719.719 0 0 1 .719-.719H11.7a.719.719 0 0 0 .714-.718z" transform="translate(0 -.804)" style="fill:#fff;fill-rule:evenodd"/>
    <g data-name="Path 118" style="fill:#fff;fill-rule:evenodd">
        <path d="M2.703 13.545a.708.708 0 0 1-.5-1.208l10.79-11.173h-2.88a.708.708 0 0 1 0-1.414h4.572c.39 0 .707.317.707.707v4.571a.708.708 0 0 1-1.414 0V2.18L3.206 13.335a.705.705 0 0 1-.503.21z" style="stroke:none" transform="translate(5.241 .5)"/>
        <path d="M10.114 0a.457.457 0 1 0 0 .914h3.467L2.38 12.514a.458.458 0 0 0 .647.647l11.202-11.6v3.467a.457.457 0 1 0 .914 0V.458A.457.457 0 0 0 14.685 0h-4.571m0-.5h4.57c.529 0 .958.43.958.957v4.571a.958.958 0 0 1-1.914 0v-2.23L3.38 13.515a.951.951 0 0 1-.677.28.959.959 0 0 1-.681-1.63l10.381-10.75h-2.29a.958.958 0 0 1 0-1.915z" style="fill:#fff;stroke:none" transform="translate(5.241 .5)"/>
    </g>
</svg>
