<svg xmlns="http://www.w3.org/2000/svg" width="55.122" height="55.122" viewBox="0 0 55.122 55.122">
    <path data-name="brightness-high (2)" d="M27.561 37.9A10.335 10.335 0 1 1 37.9 27.561 10.335 10.335 0 0 1 27.561 37.9zm0 3.445a13.781 13.781 0 1 0-13.78-13.784 13.781 13.781 0 0 0 13.78 13.781zm0-41.345a1.723 1.723 0 0 1 1.723 1.723v6.89a1.723 1.723 0 0 1-3.445 0v-6.89A1.723 1.723 0 0 1 27.561 0zm0 44.787a1.723 1.723 0 0 1 1.723 1.723v6.89a1.723 1.723 0 1 1-3.445 0v-6.89a1.723 1.723 0 0 1 1.722-1.723zm27.561-17.226a1.723 1.723 0 0 1-1.722 1.723h-6.89a1.723 1.723 0 0 1 0-3.445h6.89a1.723 1.723 0 0 1 1.722 1.722zm-44.787 0a1.723 1.723 0 0 1-1.723 1.723H1.723a1.723 1.723 0 1 1 0-3.445h6.89a1.723 1.723 0 0 1 1.722 1.722zM47.05 8.072a1.723 1.723 0 0 1 0 2.436l-4.871 4.875a1.724 1.724 0 0 1-2.436-2.439l4.871-4.871a1.723 1.723 0 0 1 2.436 0zM15.379 39.743a1.723 1.723 0 0 1 0 2.436l-4.871 4.871a1.722 1.722 0 1 1-2.436-2.436l4.872-4.871a1.723 1.723 0 0 1 2.435 0zM47.05 47.05a1.723 1.723 0 0 1-2.436 0l-4.871-4.871a1.722 1.722 0 1 1 2.436-2.436l4.871 4.872a1.723 1.723 0 0 1 0 2.436zM15.379 15.383a1.723 1.723 0 0 1-2.436 0l-4.871-4.875a1.722 1.722 0 1 1 2.436-2.436l4.871 4.872a1.723 1.723 0 0 1 0 2.439z" style="fill:#409eff"/>
</svg>
