<svg xmlns="http://www.w3.org/2000/svg" width="21.337" height="21.337" viewBox="0 0 21.337 21.337">
    <g data-name="Group 2099">
        <path d="M21.093.151a.667.667 0 0 1 .244.516v18.67a.667.667 0 0 1-.536.653l-9.335 1.334a.669.669 0 0 1-.261 0l-3.87-1.307L.8 21.324a.667.667 0 0 1-.8-.653V2a.667.667 0 0 1 .536-.653L7.2.013a.667.667 0 0 1 .261 0l3.87 1.307L20.54.013a.667.667 0 0 1 .553.137zm-10.425 2.4zM12 19.857l8-1.067V1.48l-8 1.067zM1.334 2.547z" style="fill:#777;fill-rule:evenodd"/>
        <path data-name="Line 36" transform="translate(.959 2.901)" style="fill:none;stroke:#fff;stroke-width:1.5px" d="m0 0 9.935 3.726"/>
        <path data-name="Line 37" transform="translate(.959 9.111)" style="fill:none;stroke:#fff;stroke-width:1.5px" d="m0 0 9.935 3.726"/>
        <path data-name="Line 38" transform="translate(.959 15.32)" style="fill:none;stroke:#fff;stroke-width:1.5px" d="m0 0 9.935 3.726"/>
    </g>
</svg>
