<svg xmlns="http://www.w3.org/2000/svg" width="24" height="24" viewBox="0 0 24 24">
    <g transform="translate(-724 -428)">
        <rect width="24" height="24" fill="none" rx="4" transform="translate(724 428)"/>
        <g>
            <g>
                <path fill="#777" d="M16.306 2.048L14.781.523a1.789 1.789 0 0 0-2.527 0L.907 11.87a.5.5 0 0 0-.136.259l-.763 4.118a.493.493 0 0 0 .575.575l4.117-.763a.5.5 0 0 0 .259-.136L16.306 4.576a1.786 1.786 0 0 0 0-2.528zM1.109 15.722l.461-2.492 2.03 2.03zm3.5-.844l-2.656-2.659 9.7-9.7 2.658 2.658zm11-11l-.6.6-2.655-2.661.6-.6a.8.8 0 0 1 1.133 0l1.525 1.525a.8.8 0 0 1-.003 1.136z" transform="translate(727.614 431.614)"/>
            </g>
        </g>
    </g>
</svg>
