<svg xmlns="http://www.w3.org/2000/svg" width="24" height="19.062" viewBox="0 0 24 19.062">
    <g data-name="eye-slash (1)">
        <path data-name="Path 142" d="M17.433 15.607a20.5 20.5 0 0 0 3.962-4.857s-4.5-8.25-12-8.25a10.542 10.542 0 0 0-4.185.882l1.155 1.157A8.916 8.916 0 0 1 9.395 4a11.186 11.186 0 0 1 7.752 3.685 19.7 19.7 0 0 1 2.49 3.064c-.087.131-.183.275-.292.432a19.781 19.781 0 0 1-2.2 2.632c-.247.248-.505.492-.775.729z" transform="translate(2.605 -1.219)" style="fill:#777"/>
        <path data-name="Path 143" d="M14.7 11.515A5.25 5.25 0 0 0 7.986 4.8L9.22 6.039a3.75 3.75 0 0 1 4.244 4.244l1.236 1.232zm-4.414 1.948 1.229 1.237A5.25 5.25 0 0 1 4.8 7.986L6.039 9.22a3.75 3.75 0 0 0 4.243 4.243z" transform="translate(2.249 -.22)" style="fill:#777"/>
        <path data-name="Path 144" d="M5.025 7.382q-.405.36-.777.731a19.7 19.7 0 0 0-2.49 3.064l.293.432a19.781 19.781 0 0 0 2.2 2.632A11.189 11.189 0 0 0 12 17.927a8.888 8.888 0 0 0 3.03-.54l1.155 1.158a10.544 10.544 0 0 1-4.185.882c-7.5 0-12-8.25-12-8.25A20.424 20.424 0 0 1 3.961 6.32l1.062 1.063zm15.444 13.326-18-18 1.062-1.062 18 18z" style="fill:#777" transform="translate(0 -1.646)"/>
    </g>
</svg>
