<svg xmlns="http://www.w3.org/2000/svg" width="24" height="16.5" viewBox="0 0 24 16.5">
    <g data-name="eye (3)">
        <path data-name="Path 140" d="M24 10.75S19.5 2.5 12 2.5 0 10.75 0 10.75 4.5 19 12 19s12-8.25 12-8.25zm-22.24 0a19.7 19.7 0 0 1 2.49-3.065A11.176 11.176 0 0 1 12 4a11.186 11.186 0 0 1 7.752 3.685 19.7 19.7 0 0 1 2.49 3.064c-.087.13-.183.274-.293.432a19.781 19.781 0 0 1-2.2 2.632A11.189 11.189 0 0 1 12 17.5a11.186 11.186 0 0 1-7.752-3.686 19.7 19.7 0 0 1-2.49-3.064z" style="fill:#777" transform="translate(0 -2.5)"/>
        <path data-name="Path 141" d="M9.75 6a3.75 3.75 0 1 0 3.75 3.75A3.75 3.75 0 0 0 9.75 6zM4.5 9.75A5.25 5.25 0 1 1 9.75 15 5.25 5.25 0 0 1 4.5 9.75z" transform="translate(2.25 -1.5)" style="fill:#777"/>
    </g>
</svg>
