<svg xmlns="http://www.w3.org/2000/svg" width="24" height="24" viewBox="0 0 24 24">
    <g data-name="Group 1935">
        <path data-name="Rectangle 427" style="fill:none" d="M0 0h24v24H0z"/>
        <g data-name="folder (4)">
            <g data-name="Group 208">
                <g data-name="Group 207">
                    <path data-name="Path 17" d="M15.117 49.8H5.226a.555.555 0 0 1-.555-.555v-.278a.566.566 0 0 0-.566-.566H1.131A1.131 1.131 0 0 0 0 49.534v9.519l1.452-7.062A.555.555 0 0 1 2 51.548h14.248v-.616a1.131 1.131 0 0 0-1.131-1.132z" transform="translate(1.47 -45.064)" style="fill:#263342"/>
                </g>
            </g>
            <g data-name="Group 210">
                <g data-name="Group 209">
                    <path data-name="Path 18" d="M24.537 162.01H8.94l-2.183 10.62a.562.562 0 0 0 .55.675h16.23a1.131 1.131 0 0 0 1.124-1.007l1-9.033a1.131 1.131 0 0 0-1.124-1.255z" transform="translate(-5.023 -154.416)" style="fill:#263342"/>
                </g>
            </g>
        </g>
        <path data-name="Path 57" d="m12.751 5.415-1.526-.374a4.921 4.921 0 0 0-.321-.779l.779-1.3a.38.38 0 0 0-.053-.462l-1.085-1.089a.38.38 0 0 0-.466-.053l-1.3.779A4.921 4.921 0 0 0 8 1.816L7.634.29A.392.392 0 0 0 7.259 0H5.731a.392.392 0 0 0-.374.29L4.99 1.816a4.921 4.921 0 0 0-.779.321l-1.3-.779a.38.38 0 0 0-.466.053L1.36 2.5a.38.38 0 0 0-.053.466l.779 1.3a4.921 4.921 0 0 0-.321.779l-1.475.37a.377.377 0 0 0-.29.367V7.31a.377.377 0 0 0 .29.367l1.475.374a4.921 4.921 0 0 0 .321.779l-.779 1.3a.38.38 0 0 0 .053.466l1.085 1.085a.38.38 0 0 0 .466.053l1.3-.779a4.921 4.921 0 0 0 .779.321l.367 1.475a.392.392 0 0 0 .374.29h1.528a.392.392 0 0 0 .374-.29L8 11.276a4.921 4.921 0 0 0 .779-.321l1.3.779a.38.38 0 0 0 .466-.053L11.63 10.6a.38.38 0 0 0 .053-.466l-.779-1.3a4.921 4.921 0 0 0 .321-.779l1.526-.374a.377.377 0 0 0 .29-.367V5.782a.377.377 0 0 0-.29-.367zM6.5 8.456a1.91 1.91 0 1 1 1.91-1.91 1.911 1.911 0 0 1-1.91 1.91z" transform="translate(9.783 8.712)" style="stroke:#fff;fill:#263342"/>
    </g>
</svg>
