<svg xmlns="http://www.w3.org/2000/svg" width="24" height="24" viewBox="0 0 24 24">
    <g data-name="Group 2439" transform="translate(-724 -428)">
        <rect data-name="Rectangle 330" width="24" height="24" rx="4" transform="translate(724 428)" style="fill:none"/>
        <path data-name="check-lg (1)" d="M17.935 4.087a1.124 1.124 0 0 1 1.606 0 1.159 1.159 0 0 1 .016 1.613l-9.071 10.721a1.124 1.124 0 0 1-1.634.031l-5.519-5.593a1.161 1.161 0 0 1 0-1.626 1.124 1.124 0 0 1 1.606 0l4.682 4.745L17.9 4.121a.379.379 0 0 1 .031-.034z" transform="translate(724.999 429.25)" style="fill:#777"/>
    </g>
</svg>
