<svg xmlns="http://www.w3.org/2000/svg" width="24" height="24" viewBox="0 0 24 24">
    <g data-name="Group 1794">
        <path data-name="Rectangle 427" style="fill:none" d="M0 0h24v24H0z"/>
        <path d="M12.461 4.222a3.016 3.016 0 1 0-6.032 0v.6h6.032zm1.206 0v.6h4.223V16.89a2.413 2.413 0 0 1-2.413 2.41H3.413A2.413 2.413 0 0 1 1 16.89V4.826h4.222v-.6a4.222 4.222 0 1 1 8.445 0zm-.779 6.459a.6.6 0 0 0-.854-.854l-3.192 3.194-1.383-1.384a.6.6 0 1 0-.854.854l1.81 1.81a.6.6 0 0 0 .854 0z" transform="translate(2.555 2.349)" style="fill:#777;fill-rule:evenodd"/>
    </g>
</svg>
