<svg xmlns="http://www.w3.org/2000/svg" width="24" height="24" viewBox="0 0 24 24">
    <g data-name="Group 1941">
        <path data-name="Rectangle 427" style="fill:none" d="M0 0h24v24H0z"/>
        <g data-name="Group 1870">
            <path d="M4.355 4.635v-.7a3.943 3.943 0 1 1 7.887 0v.7zm.96 0h5.965v-.7a2.982 2.982 0 0 0-5.963 0v.7z" transform="translate(3.945 2.01)" style="fill:#263342"/>
            <path data-name="my-orders-icon" d="M.754 4.813c6.385-.014 5.694 0 11.326 0h3.467a.754.754 0 0 1 .535.222.764.764 0 0 1 .222.533v11.616a2.717 2.717 0 0 1-2.709 2.709H2.709A2.717 2.717 0 0 1 0 17.184V5.568a.756.756 0 0 1 .754-.754zm10.364 0z" transform="translate(3.999 1.838)" style="fill:#263342"/>
            <path data-name="my-orders-icon" d="M3.442 10.637h1.771a.233.233 0 0 1 .23.231v1.771a.231.231 0 0 1-.231.231h-1.77a.231.231 0 0 1-.231-.231v-1.77a.233.233 0 0 1 .231-.232zm4.516 1.822a.716.716 0 0 1 0-1.409h6.963a.715.715 0 0 1 0 1.409zm-4.836 4.45a.376.376 0 0 1 .073-.551.437.437 0 0 1 .589-.019l.412.423 1.031-1.056a.376.376 0 0 1 .553.058.438.438 0 0 1 .038.589c-1.445 1.472-1.55 1.506-1.656 1.495A.376.376 0 0 1 3.9 17.7l-.032-.038a.406.406 0 0 1-.062-.051zm4.787.527a.716.716 0 0 1 .006-1.409h6.963a.716.716 0 0 1 0 1.409z" transform="translate(2.732 .389)" style="fill:#fff"/>
        </g>
    </g>
</svg>
