<svg xmlns="http://www.w3.org/2000/svg" width="16.184" height="21.973" viewBox="0 0 16.184 21.973">
    <g data-name="Group 2086">
        <g data-name="Group 2085">
            <path data-name="Path 114" d="M69.115 8.811V7.069a6.069 6.069 0 0 0-12.138 0v1.742a2.023 2.023 0 0 0-2.023 2.023V20.95a2.023 2.023 0 0 0 2.023 2.023h12.138a2.023 2.023 0 0 0 2.023-2.023V10.834a2.023 2.023 0 0 0-2.023-2.023zM59 7.069a4.046 4.046 0 0 1 8.092 0v1.742H59z" transform="translate(-54.954 -1)" style="fill:#f59829"/>
        </g>
        <path data-name="Path 115" d="M61.635 16.27v1.6a1.253 1.253 0 1 0 2.506 0v-1.6a2.506 2.506 0 1 0-2.506 0z" transform="translate(-54.796 -.391)" style="fill:#fff"/>
    </g>
</svg>
