<svg xmlns="http://www.w3.org/2000/svg" width="24" height="24" viewBox="0 0 24 24">
    <g data-name="Group 1544">
        <path data-name="Rectangle 427" transform="translate(0 .001)" style="fill:none" d="M0 0h24v24H0z"/>
        <path d="M2.037 3A2.037 2.037 0 0 0 0 5.037v2.037a.679.679 0 0 0 .679.679 2.037 2.037 0 0 1 0 4.074.679.679 0 0 0-.679.68v2.037a2.037 2.037 0 0 0 2.037 2.037h17.656a2.037 2.037 0 0 0 2.037-2.037v-2.037a.679.679 0 0 0-.679-.679 2.037 2.037 0 0 1 0-4.074.679.679 0 0 0 .679-.679V5.037A2.037 2.037 0 0 0 19.693 3z" transform="translate(1.001 2)" style="fill:#777"/>
        <path data-name="Path 98" d="m6.679 2.837-.8-.2a2.578 2.578 0 0 0-.168-.408l.408-.68a.2.2 0 0 0-.028-.244L5.524.739A.2.2 0 0 0 5.28.711l-.68.408a2.578 2.578 0 0 0-.409-.168L4 .152A.205.205 0 0 0 3.8 0H3a.205.205 0 0 0-.2.152l-.192.8a2.578 2.578 0 0 0-.408.168L1.525.711a.2.2 0 0 0-.244.028l-.568.568a.2.2 0 0 0-.028.244l.408.68a2.578 2.578 0 0 0-.168.408l-.773.2a.2.2 0 0 0-.152.19v.8a.2.2 0 0 0 .152.192l.773.2a2.578 2.578 0 0 0 .168.408l-.408.68a.2.2 0 0 0 .028.244l.568.568a.2.2 0 0 0 .244.028l.68-.408a2.578 2.578 0 0 0 .408.168l.192.773a.205.205 0 0 0 .2.152h.8A.205.205 0 0 0 4 6.679l.192-.773a2.578 2.578 0 0 0 .408-.167l.68.408a.2.2 0 0 0 .244-.028l.568-.568a.2.2 0 0 0 .028-.244l-.408-.68a2.578 2.578 0 0 0 .168-.408l.8-.2a.2.2 0 0 0 .152-.192v-.8a.2.2 0 0 0-.153-.19zM3.4 4.43a1 1 0 1 1 1-1 1 1 0 0 1-1 1z" transform="translate(8.112 8.112)" style="fill:#fff"/>
    </g>
</svg>
