<svg xmlns="http://www.w3.org/2000/svg" width="24" height="24" viewBox="0 0 24 24">
    <g data-name="Group 1874">
        <path data-name="Rectangle 427" style="fill:none" d="M0 0h24v24H0z"/>
        <path data-name="Path 19" d="m18.016 7.651-2.156-.529a6.953 6.953 0 0 0-.453-1.1l1.1-1.835a.537.537 0 0 0-.076-.659L14.9 1.994a.537.537 0 0 0-.659-.076l-1.835 1.1a6.953 6.953 0 0 0-1.1-.453L10.786.41a.554.554 0 0 0-.529-.41H8.1a.554.554 0 0 0-.529.41L7.05 2.566a6.953 6.953 0 0 0-1.1.453l-1.835-1.1a.537.537 0 0 0-.659.076L1.922 3.527a.537.537 0 0 0-.076.659l1.1 1.835a6.953 6.953 0 0 0-.453 1.1l-2.083.53a.532.532 0 0 0-.41.518v2.159a.532.532 0 0 0 .41.518l2.084.529a6.953 6.953 0 0 0 .453 1.1l-1.1 1.835a.537.537 0 0 0 .076.659L3.455 16.5a.537.537 0 0 0 .659.076l1.835-1.1a6.953 6.953 0 0 0 1.1.453l.518 2.084a.554.554 0 0 0 .529.41h2.159a.554.554 0 0 0 .529-.41l.518-2.084a6.953 6.953 0 0 0 1.1-.453l1.835 1.1a.537.537 0 0 0 .663-.076l1.533-1.533a.537.537 0 0 0 .076-.659l-1.1-1.835a6.953 6.953 0 0 0 .453-1.1l2.156-.529a.532.532 0 0 0 .41-.518V8.169a.532.532 0 0 0-.412-.518zm-8.839 4.3a2.7 2.7 0 1 1 2.7-2.7 2.7 2.7 0 0 1-2.7 2.697z" transform="translate(3.106 2.385)" style="fill:#777"/>
    </g>
</svg>
