<svg xmlns="http://www.w3.org/2000/svg" width="24" height="24" viewBox="0 0 24 24">
    <g data-name="Group 289">
        <path data-name="Rectangle 427" style="fill:none" d="M0 0h24v24H0z"/>
        <path data-name="Path 22" d="M62.618 18.412h10.788a1.62 1.62 0 0 0 1.618-1.618v-11.4h-3.775a1.62 1.62 0 0 1-1.618-1.618V0h-7.013A1.62 1.62 0 0 0 61 1.618v15.176a1.62 1.62 0 0 0 1.618 1.618zm2.158-10.824h6.473a.539.539 0 0 1 0 1.079h-6.473a.539.539 0 1 1 0-1.079zm0 2.158h6.473a.539.539 0 0 1 0 1.079h-6.473a.539.539 0 1 1 0-1.079zm0 2.158h6.473a.539.539 0 0 1 0 1.079h-6.473a.539.539 0 1 1 0-1.079zm0 2.158h4.315a.539.539 0 1 1 0 1.079h-4.315a.539.539 0 1 1 0-1.079z" transform="translate(-56.012 2.794)" style="fill:#777"/>
        <path data-name="Path 23" d="M331.539 12.788H335l-4-4v3.46a.54.54 0 0 0 .539.54z" transform="translate(-316.303 -5.679)" style="fill:#777"/>
    </g>
</svg>
