<svg xmlns="http://www.w3.org/2000/svg" width="28" height="28" viewBox="0 0 28 28">
    <g data-name="Group 129">
        <g data-name="Ellipse 15" style="fill:#f5f7fa;stroke:#fff">
            <circle cx="14" cy="14" r="14" style="stroke:none"/>
            <circle cx="14" cy="14" r="13.5" style="fill:none"/>
        </g>
        <g data-name="Group 71">
            <g data-name="Group 70" transform="translate(5 6)">
                <circle data-name="Ellipse 8" cx="3.254" cy="3.254" r="3.254" transform="translate(5.646 4.995)" style="fill:#1c3366"/>
                <g data-name="Path 67">
                    <path data-name="Path 4" d="M14.02 55.977H1.12a1.872 1.872 0 0 1-1.87-1.87v-8.385a1.872 1.872 0 0 1 1.87-1.87h2.046a.381.381 0 0 0 .274-.114l1.179-1.179a2.179 2.179 0 0 1 1.551-.642h2.8a2.179 2.179 0 0 1 1.551.642l1.179 1.179a.38.38 0 0 0 .274.113h2.045a1.873 1.873 0 0 1 1.87 1.87v8.384a1.872 1.872 0 0 1-1.869 1.872zM7.57 46.3a3.289 3.289 0 1 0 3.289 3.289A3.293 3.293 0 0 0 7.57 46.3z" transform="translate(1.33 -41.337)" style="fill:#1c3366"/>
                    <path data-name="Path 5" d="M6 42.328a1.6 1.6 0 0 0-1.14.472l-1.179 1.179a.962.962 0 0 1-.681.284H.951a1.291 1.291 0 0 0-1.29 1.29v8.384a1.291 1.291 0 0 0 1.29 1.29h12.9a1.291 1.291 0 0 0 1.29-1.29v-8.384a1.291 1.291 0 0 0-1.29-1.29H11.8a.962.962 0 0 1-.684-.283L9.941 42.8a1.6 1.6 0 0 0-1.14-.472H6m1.4 10.964a3.87 3.87 0 1 1 3.87-3.87 3.874 3.874 0 0 1-3.87 3.87m5.16-5.8a.645.645 0 1 1 .645-.645.646.646 0 0 1-.645.645M6 41.167h2.8a2.755 2.755 0 0 1 1.961.812l1.124 1.121h1.965a2.454 2.454 0 0 1 2.45 2.453v8.384a2.454 2.454 0 0 1-2.451 2.451H.951A2.454 2.454 0 0 1-1.5 53.937v-8.384A2.454 2.454 0 0 1 .951 43.1h1.965l1.122-1.122A2.755 2.755 0 0 1 6 41.167zm1.4 10.964a2.709 2.709 0 1 0-2.709-2.709A2.712 2.712 0 0 0 7.4 52.131z" transform="translate(1.5 -41.167)" style="fill:#fff"/>
                </g>
            </g>
        </g>
    </g>
</svg>
