<svg xmlns="http://www.w3.org/2000/svg" width="17" height="17" viewBox="0 0 17 17">
    <g data-name="Group 2301">
        <path data-name="Rectangle 330" style="fill:none" d="M0 0h17v17H0z"/>
        <path data-name="Path 1179" d="M222.726 154.7a.327.327 0 0 0-.327.327v6.191a.327.327 0 1 0 .655 0v-6.191a.327.327 0 0 0-.327-.327zm0 0" transform="translate(-212.125 -148.349)" style="fill:#777"/>
        <path data-name="Path 1180" d="M104.726 154.7a.327.327 0 0 0-.327.327v6.191a.327.327 0 1 0 .655 0v-6.191a.327.327 0 0 0-.327-.327zm0 0" transform="translate(-97.99 -148.349)" style="fill:#777"/>
        <path data-name="Path 1181" d="M.929 4.163v8.071a1.808 1.808 0 0 0 .481 1.246 1.613 1.613 0 0 0 1.17.509h6.2a1.613 1.613 0 0 0 1.17-.509 1.808 1.808 0 0 0 .481-1.246V4.163a1.251 1.251 0 0 0-.318-2.46H8.431v-.41A1.287 1.287 0 0 0 7.134 0h-2.91a1.287 1.287 0 0 0-1.3 1.293V1.7H1.25a1.251 1.251 0 0 0-.318 2.46zm7.849 9.168H2.58a1.038 1.038 0 0 1-1-1.1V4.192h8.193v8.042a1.038 1.038 0 0 1-1 1.1zM3.583 1.293a.631.631 0 0 1 .642-.636h2.909a.631.631 0 0 1 .642.636V1.7H3.583zM1.25 2.357h8.86a.59.59 0 1 1 0 1.179H1.25a.59.59 0 1 1 0-1.179zm0 0" transform="translate(2.99 1.286)" style="fill:#777"/>
        <path data-name="Path 1182" d="M163.726 154.7a.327.327 0 0 0-.327.327v6.191a.327.327 0 1 0 .655 0v-6.191a.327.327 0 0 0-.327-.327zm0 0" transform="translate(-155.058 -148.349)" style="fill:#777"/>
    </g>
</svg>
