<svg xmlns="http://www.w3.org/2000/svg" width="24" height="24" viewBox="0 0 24 24">
    <g data-name="Group 1805">
        <path data-name="Rectangle 2315" style="fill:none" d="M0 0h24v24H0z"/>
        <path d="M4.5 3.744a3.244 3.244 0 0 1 6.488 0v11.678a1.946 1.946 0 1 1-3.893 0V6.339a.649.649 0 0 1 1.3 0v9.083a.649.649 0 1 0 1.3 0V3.744a1.946 1.946 0 1 0-3.893 0v11.678a3.244 3.244 0 1 0 6.488 0V6.339a.649.649 0 0 1 1.3 0v9.083a4.541 4.541 0 1 1-9.083 0z" transform="translate(2.5 1.5)" style="fill:#263342"/>
    </g>
</svg>
