<svg xmlns="http://www.w3.org/2000/svg" width="24" height="24" viewBox="0 0 24 24">
    <g data-name="Group 1654">
        <path data-name="Rectangle 427" style="fill:none" d="M0 0h24v24H0z"/>
        <g data-name="folder (4)">
            <g data-name="Group 208">
                <g data-name="Group 207">
                    <path data-name="Path 17" d="M13.951 49.693H4.823a.512.512 0 0 1-.512-.512v-.256a.522.522 0 0 0-.522-.522H1.044A1.044 1.044 0 0 0 0 49.447v8.785l1.34-6.517a.512.512 0 0 1 .5-.409H15v-.568a1.044 1.044 0 0 0-1.049-1.045z" transform="translate(3.293 -43.354)" style="fill:#777"/>
                </g>
            </g>
            <g data-name="Group 210">
                <g data-name="Group 209">
                    <path data-name="Path 18" d="M23.165 162.01H8.771l-2.015 9.8a.518.518 0 0 0 .508.623h14.979a1.044 1.044 0 0 0 1.038-.929l.922-8.336a1.044 1.044 0 0 0-1.038-1.158z" transform="translate(-3.22 -153.034)" style="fill:#777"/>
                </g>
            </g>
        </g>
    </g>
</svg>
