<svg xmlns="http://www.w3.org/2000/svg" width="24" height="24" viewBox="0 0 24 24">
    <g data-name="Group 1653">
        <path data-name="Rectangle 427" style="fill:none" d="M0 0h24v24H0z"/>
        <path d="M17.776 0A2.989 2.989 0 0 1 19.9 5.1a3 3 0 0 1-2.922.772L16.8 6.2a6.745 6.745 0 0 1 .931.772 6.6 6.6 0 0 1 0 9.337l-.143.137 1.159 1.529a2.931 2.931 0 0 1 1.13-.222 2.982 2.982 0 0 1 2.113.875 2.989 2.989 0 1 1-4.225 4.229 2.993 2.993 0 0 1-.031-4.2L16.625 17.2a6.6 6.6 0 0 1-9.124-2l-1.972 1.02a2.988 2.988 0 0 1-.5 3.561 2.989 2.989 0 0 1-4.225 0 2.993 2.993 0 0 1 0-4.229l.035-.031a2.985 2.985 0 0 1 3.861-.25.338.338 0 0 1 .056-.015l2.18-1.134A6.612 6.612 0 0 1 7.46 8.13l-2.336-1.8h-.012a2.983 2.983 0 0 1-4.19-.03 2.989 2.989 0 1 1 4.221-4.218A2.993 2.993 0 0 1 5.8 5.32a.545.545 0 0 1 .06.041l2.34 1.8.193-.193a6.61 6.61 0 0 1 7.34-1.368l.156-.3c-.077-.062-.151-.129-.222-.193l-.031-.035a2.984 2.984 0 0 1 .031-4.188A2.983 2.983 0 0 1 17.776 0z" transform="translate(.756 .265)" style="fill:#777"/>
        <path data-name="Path 69" d="M6.58 8.96A.568.568 0 0 1 6 8.38a2.623 2.623 0 0 1 2.9-2.32 2.623 2.623 0 0 1 2.9 2.32.568.568 0 0 1-.58.58zM8.9 5.48a1.74 1.74 0 1 0-1.74-1.74A1.74 1.74 0 0 0 8.9 5.48z" transform="translate(5.191 6.01)" style="fill:#fff"/>
    </g>
</svg>
