<svg xmlns="http://www.w3.org/2000/svg" width="13.258" height="18" viewBox="0 0 13.258 18">
    <g data-name="Group 2419">
        <path data-name="Subtraction 1" d="M11.6 18H1.656A1.658 1.658 0 0 1 0 16.343V8.054A1.658 1.658 0 0 1 1.656 6.4V4.971a4.973 4.973 0 0 1 9.946 0V6.4a1.659 1.659 0 0 1 1.657 1.656v8.289A1.659 1.659 0 0 1 11.6 18zM6.627 9.185a2.055 2.055 0 0 0-2.052 2.053A2.031 2.031 0 0 0 5.6 13.006v1.312a1.027 1.027 0 0 0 2.053 0v-1.312a2.031 2.031 0 0 0 1.027-1.768 2.056 2.056 0 0 0-2.053-2.053zm0-7.528a3.318 3.318 0 0 0-3.312 3.314V6.4h6.628V4.971a3.319 3.319 0 0 0-3.316-3.314z" style="fill:#f59829"/>
    </g>
</svg>
