<svg xmlns="http://www.w3.org/2000/svg" width="21.528" height="21.714" viewBox="0 0 21.528 21.714">
    <g data-name="Group 1851">
        <path data-name="Path 100" d="M11.665-505.168a2.264 2.264 0 0 0-1.453 1.2c-.176.352-.176.357-.191 1.22l-.021.869h1.51v-.595c0-.7.078-.951.336-1.112.145-.088.253-.1.8-.1h.626v-1.551l-.683.005a5.039 5.039 0 0 0-.924.064z" transform="translate(-10 505.24)" style="fill:#777"/>
        <path data-name="Path 101" d="M217.58-504.455v.775h2.12v-1.551h-2.12z" transform="translate(-213.02 505.23)" style="fill:#777"/>
        <path data-name="Path 102" d="M372.91-504.464v.775l1.075-.01 1.07-.016.016-.765.016-.76h-2.177v.776z" transform="translate(-364.938 505.24)" style="fill:#777"/>
        <path data-name="Path 103" d="m528.025-504.47.016.765 1.075.016 1.07.01v-1.551h-2.176z" transform="translate(-516.631 505.23)" style="fill:#777"/>
        <path data-name="Path 104" d="M685.93-504.455v.775h2.12v-1.551h-2.12z" transform="translate(-671.082 505.23)" style="fill:#777"/>
        <path data-name="Path 105" d="M841.25-504.455v.775h.626c.543 0 .652.016.8.1.259.16.336.414.336 1.112v.595h1.509l-.021-.869c-.016-.863-.016-.869-.191-1.22a2.293 2.293 0 0 0-1.51-1.215 5.443 5.443 0 0 0-.884-.057h-.662v.775z" transform="translate(-822.99 505.23)" style="fill:#777"/>
        <path data-name="Path 106" d="M10.47-292.36v1.06h1.5v-2.12h-1.5z" transform="translate(-10.46 298.073)" style="fill:#777"/>
        <path data-name="Path 107" d="M921.27-292.36v1.06h1.5v-2.12h-1.5v1.06z" transform="translate(-901.252 298.073)" style="fill:#777"/>
        <path data-name="Path 108" d="m258.362-259.746.724.724-3.557 3.552-3.552 3.557-.724-.724-.724-.724v3.852h3.852l-.724-.724-.724-.724 3.557-3.552 3.552-3.557.724.724.724.724v-3.852h-3.852z" transform="translate(-245.246 265.847)" style="fill:#777"/>
        <path data-name="Path 109" d="M13.295-147.428a2.282 2.282 0 0 0-1.484 1.2l-.171.351v10.6l.176.357a2.294 2.294 0 0 0 1.51 1.215c.145.036 2.037.057 5.191.057a45.39 45.39 0 0 0 5.273-.083 2.214 2.214 0 0 0 1.623-1.83c.067-.393.078-9.2.016-9.2-.021 0-.367.331-.775.739l-.734.734v3.769c0 4.167.01 4.017-.331 4.224-.155.093-.357.1-5.066.1-4.829 0-4.906 0-5.072-.1-.351-.217-.336.005-.336-5.284 0-4.643.005-4.772.1-4.979.2-.414-.057-.388 4.095-.388H21l.775-.775.775-.775-4.5.005c-3.396-.009-4.559.017-4.755.063z" transform="translate(-11.604 155.359)" style="fill:#777"/>
        <path data-name="Path 110" d="M921.27-136.995v1.086h1.5v-2.171h-1.5v1.085z" transform="translate(-901.252 146.145)" style="fill:#777"/>
        <path data-name="Path 111" d="M921.27 18.336v1.086h1.5V17.25h-1.5v1.086z" transform="translate(-901.252 -5.772)" style="fill:#777"/>
        <path data-name="Path 112" d="M921.27 175.98v1.06h1.5v-2.12h-1.5v1.06z" transform="translate(-901.252 -159.979)" style="fill:#777"/>
        <path data-name="Path 113" d="M843.008 330.845a1.728 1.728 0 0 1-.1.817c-.16.336-.3.388-1.029.388h-.626v1.55h.662a5.452 5.452 0 0 0 .884-.057 2.294 2.294 0 0 0 1.51-1.215c.176-.352.176-.357.191-1.22l.021-.869h-1.51z" transform="translate(-822.99 -311.887)" style="fill:#777"/>
        <path data-name="Path 114" d="M685.93 413.405v.775h2.12v-1.55h-2.12z" transform="translate(-671.082 -392.467)" style="fill:#777"/>
    </g>
</svg>
