<svg xmlns="http://www.w3.org/2000/svg" width="32" height="32" viewBox="0 0 32 32">
    <g data-name="Group 1708" transform="translate(-724 -428)">
        <rect data-name="Rectangle 330" width="32" height="32" rx="4" transform="translate(724 428)" style="fill:none"/>
        <path data-name="Path 119" d="M10.193 5.1A5.1 5.1 0 1 1 5.1 0a5.1 5.1 0 0 1 5.093 5.1zM1.7 5.1a3.4 3.4 0 1 0 3.4-3.4 3.4 3.4 0 0 0-3.4 3.4z" transform="translate(726 429.895)" style="fill:#777"/>
        <path data-name="Path 120" d="M15.29 6h.849a3.4 3.4 0 0 1 3.369 2.953L24.791 6.6a1.7 1.7 0 0 1 2.39 1.551v12.682a1.7 1.7 0 0 1-2.389 1.551l-5.285-2.348a3.4 3.4 0 0 1-3.369 2.953H3.4a3.4 3.4 0 0 1-3.4-3.4V9.4A3.4 3.4 0 0 1 3.4 6zm10.193 14.831V8.158L19.537 10.8v7.39l5.946 2.643zM1.7 9.4v10.191a1.7 1.7 0 0 0 1.7 1.7h12.739a1.7 1.7 0 0 0 1.7-1.7V9.4a1.7 1.7 0 0 0-1.7-1.7H3.4a1.7 1.7 0 0 0-1.7 1.7z" transform="translate(726 434.088)" style="fill:#777"/>
        <path data-name="Path 121" d="M11.1 10.193A5.1 5.1 0 1 0 6 5.1a5.1 5.1 0 0 0 5.1 5.093zM7.7 5.1a3.4 3.4 0 1 1 3.4 3.4 3.4 3.4 0 0 1-3.4-3.4z" transform="translate(730.193 429.895)" style="fill:#777"/>
    </g>
</svg>
