<svg xmlns="http://www.w3.org/2000/svg" width="32" height="32" viewBox="0 0 32 32">
    <g data-name="Group 1714">
        <path data-name="Rectangle 330" style="fill:none" d="M0 0h32v32H0z"/>
        <path d="M19.869 3.4A11.474 11.474 0 0 0 11.678 0a11.591 11.591 0 0 0-10.04 17.371L0 23.374l6.141-1.61a11.589 11.589 0 0 0 5.537 1.41h.006A11.579 11.579 0 0 0 19.868 3.4zm-8.191 17.813a9.6 9.6 0 0 1-4.9-1.344l-.351-.21-3.643.955.973-3.554-.228-.367a9.623 9.623 0 1 1 8.152 4.52zm5.281-7.208c-.288-.145-1.709-.844-1.977-.944s-.46-.145-.65.145-.749.944-.916 1.132-.339.216-.628.073a7.9 7.9 0 0 1-2.326-1.439 8.832 8.832 0 0 1-1.611-2c-.167-.289-.016-.444.129-.589.127-.129.288-.339.432-.505a1.847 1.847 0 0 0 .288-.486.539.539 0 0 0-.022-.507c-.073-.145-.65-1.572-.894-2.147s-.472-.489-.65-.5-.361-.01-.555-.01a1.065 1.065 0 0 0-.773.361A3.243 3.243 0 0 0 5.8 9.008 5.607 5.607 0 0 0 6.981 12a12.867 12.867 0 0 0 4.942 4.371 16.1 16.1 0 0 0 1.649.611 3.976 3.976 0 0 0 1.82.117 3 3 0 0 0 1.955-1.378 2.423 2.423 0 0 0 .167-1.378c-.072-.123-.266-.194-.555-.339z" transform="translate(3.956 3.951)" style="fill:#222"/>
    </g>
</svg>
