<svg width="18" height="20" viewBox="0 0 18 20" fill="none" xmlns="http://www.w3.org/2000/svg">
    <path d="M2 20c-.55 0-1.02-.196-1.413-.587A1.926 1.926 0 0 1 0 18V4c0-.55.196-1.02.588-1.413A1.926 1.926 0 0 1 2 2h4.2c.217-.6.58-1.083 1.087-1.45A2.857 2.857 0 0 1 9 0c.633 0 1.204.183 1.713.55.508.367.87.85 1.087 1.45H16c.55 0 1.02.196 1.413.587C17.803 2.98 18 3.45 18 4v14c0 .55-.196 1.02-.587 1.413A1.926 1.926 0 0 1 16 20H2zm0-2h14V4H2v14zm3-2h5c.283 0 .52-.096.713-.287A.968.968 0 0 0 11 15a.968.968 0 0 0-.287-.713A.968.968 0 0 0 10 14H5a.967.967 0 0 0-.713.287A.968.968 0 0 0 4 15c0 .283.096.52.287.713.192.191.43.287.713.287zm0-4h8c.283 0 .52-.096.713-.287A.968.968 0 0 0 14 11a.968.968 0 0 0-.287-.713A.968.968 0 0 0 13 10H5a.967.967 0 0 0-.713.287A.968.968 0 0 0 4 11c0 .283.096.52.287.713.192.191.43.287.713.287zm0-4h8c.283 0 .52-.096.713-.287A.967.967 0 0 0 14 7a.967.967 0 0 0-.287-.713A.968.968 0 0 0 13 6H5a.968.968 0 0 0-.713.287A.968.968 0 0 0 4 7c0 .283.096.52.287.713.192.191.43.287.713.287zm4-4.75a.728.728 0 0 0 .75-.75.728.728 0 0 0-.75-.75.728.728 0 0 0-.75.75.728.728 0 0 0 .75.75z" fill="#409EFF"/>
</svg>
