<svg xmlns="http://www.w3.org/2000/svg" width="24" height="24" viewBox="0 0 24 24">
    <g data-name="Group 294" transform="translate(-724 -428)">
        <rect data-name="Rectangle 330" width="24" height="24" rx="4" transform="translate(724 428)" style="fill:none"/>
        <g data-name="Group 286">
            <path data-name="Path 50" d="M16.516 2.074 14.972.529a1.812 1.812 0 0 0-2.56 0L.919 12.023a.509.509 0 0 0-.138.262l-.773 4.172a.5.5 0 0 0 .582.582l4.171-.772a.509.509 0 0 0 .262-.138L16.516 4.634a1.809 1.809 0 0 0 0-2.56zM1.123 15.924 1.59 13.4l2.056 2.056zm3.547-.855-2.692-2.693 9.829-9.83L14.5 5.239zM15.81 3.928l-.6.6-2.697-2.688.6-.6a.812.812 0 0 1 1.147 0l1.55 1.541a.811.811 0 0 1 0 1.147z" transform="translate(727.505 431.505)" style="fill:#777"/>
        </g>
    </g>
</svg>
