<svg xmlns="http://www.w3.org/2000/svg" width="24" height="23.992" viewBox="0 0 24 23.992">
    <g data-name="Group 166">
        <path data-name="Rectangle 196" style="fill:none" d="M0 0h24v23.992H0z"/>
        <path data-name="Path 1095" d="m9.953 8.442 6.831-6.825a.377.377 0 0 0 0-.528l-.977-.983a.377.377 0 0 0-.528 0l-6.834 6.83L1.618.106a.387.387 0 0 0-.528 0l-.973.974a.377.377 0 0 0 0 .528l6.822 6.834-6.827 6.826a.377.377 0 0 0 0 .528l.973.974a.377.377 0 0 0 .528 0l6.832-6.82 6.83 6.83a.377.377 0 0 0 .528 0l.974-.974a.377.377 0 0 0 0-.528z" transform="translate(3.551 3.556)" style="fill:#222"/>
    </g>
</svg>
