<svg xmlns="http://www.w3.org/2000/svg" width="24" height="24" viewBox="0 0 24 24">
    <g data-name="Group 278">
        <path data-name="Rectangle 330" style="fill:none" d="M0 0h24v24H0z"/>
        <path data-name="Path 1179" d="M222.828 154.7a.429.429 0 0 0-.429.429v8.119a.429.429 0 1 0 .859 0v-8.119a.429.429 0 0 0-.429-.429zm0 0" transform="translate(-208.364 -145.23)" style="fill:#777"/>
        <path data-name="Path 1180" d="M104.828 154.7a.429.429 0 0 0-.429.429v8.119a.429.429 0 1 0 .859 0v-8.119a.429.429 0 0 0-.429-.429zm0 0" transform="translate(-95.434 -145.23)" style="fill:#777"/>
        <path data-name="Path 1181" d="M1.218 5.459v10.584a2.37 2.37 0 0 0 .63 1.634 2.115 2.115 0 0 0 1.535.667h8.127a2.115 2.115 0 0 0 1.535-.667 2.37 2.37 0 0 0 .63-1.634V5.459a1.641 1.641 0 0 0-.417-3.227h-2.2V1.7A1.687 1.687 0 0 0 9.354 0H5.539a1.687 1.687 0 0 0-1.7 1.7v.537h-2.2a1.641 1.641 0 0 0-.417 3.227zM11.51 17.482H3.383a1.361 1.361 0 0 1-1.306-1.439V5.5h10.739v10.543a1.361 1.361 0 0 1-1.306 1.439zM4.7 1.7a.828.828 0 0 1 .84-.838h3.814a.828.828 0 0 1 .846.838v.537H4.7zM1.641 3.1h11.616a.773.773 0 0 1 0 1.547H1.639a.773.773 0 1 1 0-1.547zm0 0" transform="translate(4.483 2.829)" style="fill:#777"/>
        <path data-name="Path 1182" d="M163.828 154.7a.429.429 0 0 0-.429.429v8.119a.429.429 0 1 0 .859 0v-8.119a.429.429 0 0 0-.429-.429zm0 0" transform="translate(-151.899 -145.23)" style="fill:#777"/>
    </g>
</svg>
