<svg xmlns="http://www.w3.org/2000/svg" width="23.001" height="23.001" viewBox="0 0 23.001 23.001">
    <path data-name="Subtraction 8" d="M-3993.5 6987a11.422 11.422 0 0 1-8.132-3.369 11.427 11.427 0 0 1-3.368-8.131 11.424 11.424 0 0 1 3.368-8.131 11.426 11.426 0 0 1 8.132-3.369 11.429 11.429 0 0 1 8.132 3.368 11.423 11.423 0 0 1 3.368 8.132 11.514 11.514 0 0 1-11.5 11.5zm-5.031-12.22a.72.72 0 0 0-.719.719.72.72 0 0 0 .719.719h4.312v4.312a.72.72 0 0 0 .719.719.72.72 0 0 0 .719-.719v-4.312h4.313a.719.719 0 0 0 .717-.719.719.719 0 0 0-.717-.719h-4.313v-4.312a.72.72 0 0 0-.719-.719.72.72 0 0 0-.719.719v4.312z" transform="translate(4005 -6964)" style="fill:#1c3366"/>
</svg>
