<svg xmlns="http://www.w3.org/2000/svg" width="24" height="24" viewBox="0 0 24 24">
    <g data-name="Group 294" transform="translate(-724 -428)">
        <rect data-name="Rectangle 330" width="24" height="24" rx="4" transform="translate(724 428)" style="fill:none"/>
        <path d="M17.807 4.085a1.115 1.115 0 0 1 1.592 0 1.149 1.149 0 0 1 .015 1.6l-8.992 10.628a1.115 1.115 0 0 1-1.62.03L3.33 10.8a1.151 1.151 0 0 1 0-1.612 1.115 1.115 0 0 1 1.592 0l4.642 4.7 8.213-9.772a.376.376 0 0 1 .03-.033z" transform="translate(724.999 430.25)" style="fill:#777"/>
    </g>
</svg>
