<svg width="16" height="16" viewBox="0 0 16 16" fill="none" xmlns="http://www.w3.org/2000/svg">
    <g clip-path="url(#7zfbycd4wa)">
        <path d="M7.992 1.333A6.663 6.663 0 0 0 1.332 8c0 3.68 2.98 6.667 6.66 6.667A6.67 6.67 0 0 0 14.665 8a6.67 6.67 0 0 0-6.673-6.667zm.007 12A5.332 5.332 0 0 1 2.665 8 5.332 5.332 0 0 1 8 2.667 5.332 5.332 0 0 1 13.332 8a5.332 5.332 0 0 1-5.333 5.333zm.333-8.666h-1v4l3.5 2.1.5-.82-3-1.78v-3.5z" fill="#777"/>
    </g>
    <defs>
        <clipPath id="7zfbycd4wa">
            <path fill="#fff" d="M0 0h16v16H0z"/>
        </clipPath>
    </defs>
</svg>
