<svg width="16" height="16" viewBox="0 0 16 16" fill="none" xmlns="http://www.w3.org/2000/svg">
<g clip-path="url(#clip0_7298_43933)">
<path d="M8 15C6.14348 15 4.36301 14.2625 3.05025 12.9497C1.7375 11.637 1 9.85652 1 8C1 6.14348 1.7375 4.36301 3.05025 3.05025C4.36301 1.7375 6.14348 1 8 1C9.85652 1 11.637 1.7375 12.9497 3.05025C14.2625 4.36301 15 6.14348 15 8C15 9.85652 14.2625 11.637 12.9497 12.9497C11.637 14.2625 9.85652 15 8 15ZM8 16C10.1217 16 12.1566 15.1571 13.6569 13.6569C15.1571 12.1566 16 10.1217 16 8C16 5.87827 15.1571 3.84344 13.6569 2.34315C12.1566 0.842855 10.1217 0 8 0C5.87827 0 3.84344 0.842855 2.34315 2.34315C0.842855 3.84344 0 5.87827 0 8C0 10.1217 0.842855 12.1566 2.34315 13.6569C3.84344 15.1571 5.87827 16 8 16Z" fill="#777777"/>
<path d="M10.9699 4.96979C10.9627 4.9767 10.956 4.98404 10.9498 4.99179L7.47685 9.41679L5.38385 7.32279C5.24168 7.19031 5.05363 7.11819 4.85933 7.12162C4.66503 7.12505 4.47964 7.20376 4.34223 7.34117C4.20482 7.47858 4.1261 7.66397 4.12268 7.85827C4.11925 8.05257 4.19137 8.24062 4.32385 8.38279L6.96985 11.0298C7.04113 11.1009 7.12601 11.157 7.21943 11.1946C7.31285 11.2323 7.4129 11.2507 7.5136 11.2489C7.61429 11.247 7.71359 11.2249 7.80555 11.1838C7.89751 11.1427 7.98025 11.0835 8.04885 11.0098L12.0409 6.01979C12.1768 5.87712 12.2511 5.68669 12.2477 5.48966C12.2444 5.29263 12.1636 5.10484 12.0229 4.96689C11.8822 4.82893 11.6928 4.7519 11.4958 4.75244C11.2987 4.75299 11.1098 4.83106 10.9699 4.96979Z" fill="#777777"/>
</g>
<defs>
<clipPath id="clip0_7298_43933">
<rect width="16" height="16" fill="white"/>
</clipPath>
</defs>
</svg>
