<svg width="16" height="17" viewBox="0 0 16 17" fill="none" xmlns="http://www.w3.org/2000/svg">
<g clip-path="url(#clip0_11227_14981)">
<path d="M16 8.5C16 10.6217 15.1571 12.6566 13.6569 14.1569C12.1566 15.6571 10.1217 16.5 8 16.5C5.87827 16.5 3.84344 15.6571 2.34315 14.1569C0.842855 12.6566 0 10.6217 0 8.5C0 6.37827 0.842855 4.34344 2.34315 2.84315C3.84344 1.34285 5.87827 0.5 8 0.5C10.1217 0.5 12.1566 1.34285 13.6569 2.84315C15.1571 4.34344 16 6.37827 16 8.5ZM8 11.5C8.79565 11.5 9.55871 11.1839 10.1213 10.6213C10.6839 10.0587 11 9.29565 11 8.5C11 7.70435 10.6839 6.94129 10.1213 6.37868C9.55871 5.81607 8.79565 5.5 8 5.5C7.20435 5.5 6.44129 5.81607 5.87868 6.37868C5.31607 6.94129 5 7.70435 5 8.5C5 9.29565 5.31607 10.0587 5.87868 10.6213C6.44129 11.1839 7.20435 11.5 8 11.5Z" fill="#409EFF"/>
</g>
<defs>
<clipPath id="clip0_11227_14981">
<rect width="16" height="16" fill="white" transform="translate(0 0.5)"/>
</clipPath>
</defs>
</svg>
