<svg xmlns="http://www.w3.org/2000/svg" width="12.5" height="20" viewBox="0 0 12.5 20">
    <defs>
        <style>
            .cls-1{fill:#999}
        </style>
    </defs>
    <g id="phone" transform="translate(-3)">
        <path id="Path_3" data-name="Path 3" class="cls-1" d="M13 1.25a1.25 1.25 0 0 1 1.25 1.25v15A1.25 1.25 0 0 1 13 18.75H5.5a1.25 1.25 0 0 1-1.25-1.25v-15A1.25 1.25 0 0 1 5.5 1.25zM5.5 0A2.5 2.5 0 0 0 3 2.5v15A2.5 2.5 0 0 0 5.5 20H13a2.5 2.5 0 0 0 2.5-2.5v-15A2.5 2.5 0 0 0 13 0z"/>
        <path id="Path_4" data-name="Path 4" class="cls-1" d="M8 14a1 1 0 1 0-1-1 1 1 0 0 0 1 1z" transform="translate(1.25 4)"/>
    </g>
</svg>
