<svg width="25" height="24" viewBox="0 0 25 24" fill="none" xmlns="http://www.w3.org/2000/svg">
<g id="Pencil" clip-path="url(#clip0_1397_103)">
<path id="Vector" d="M19.2158 0.219364C19.2854 0.149519 19.3682 0.094105 19.4593 0.0562953C19.5504 0.0184856 19.6481 -0.000976563 19.7468 -0.000976562C19.8454 -0.000976562 19.9431 0.0184856 20.0342 0.0562953C20.1253 0.094105 20.2081 0.149519 20.2778 0.219364L24.7778 4.71936C24.8476 4.78903 24.903 4.8718 24.9408 4.96291C24.9787 5.05403 24.9981 5.15171 24.9981 5.25036C24.9981 5.34902 24.9787 5.4467 24.9408 5.53781C24.903 5.62893 24.8476 5.7117 24.7778 5.78136L9.77778 20.7814C9.7058 20.8528 9.62007 20.909 9.52578 20.9464L2.02578 23.9464C1.88948 24.0009 1.74017 24.0143 1.59636 23.9848C1.45254 23.9553 1.32055 23.8842 1.21674 23.7804C1.11293 23.6766 1.04187 23.5446 1.01237 23.4008C0.982868 23.257 0.996223 23.1077 1.05078 22.9714L4.05078 15.4714C4.08817 15.3771 4.1443 15.2913 4.21578 15.2194L19.2158 0.219364ZM17.8073 3.75036L21.2468 7.18986L23.1863 5.25036L19.7468 1.81086L17.8073 3.75036ZM20.1863 8.25036L16.7468 4.81086L6.99678 14.5609V15.0004H7.74678C7.94569 15.0004 8.13646 15.0794 8.27711 15.22C8.41776 15.3607 8.49678 15.5515 8.49678 15.7504V16.5004H9.24678C9.44569 16.5004 9.63646 16.5794 9.77711 16.72C9.91776 16.8607 9.99678 17.0515 9.99678 17.2504V18.0004H10.4363L20.1863 8.25036ZM5.54478 16.0129L5.38578 16.1719L3.09378 21.9034L8.82528 19.6114L8.98428 19.4524C8.84121 19.3989 8.71787 19.303 8.63075 19.1776C8.54363 19.0522 8.49689 18.9031 8.49678 18.7504V18.0004H7.74678C7.54787 18.0004 7.3571 17.9213 7.21645 17.7807C7.0758 17.64 6.99678 17.4493 6.99678 17.2504V16.5004H6.24678C6.09405 16.5002 5.94499 16.4535 5.81955 16.3664C5.6941 16.2793 5.59824 16.1559 5.54478 16.0129Z" fill="#777777"/>
</g>
<defs>
<clipPath id="clip0_1397_103">
<rect width="24" height="24" fill="white" transform="translate(0.99707)"/>
</clipPath>
</defs>
</svg>
