<svg width="25" height="24" viewBox="0 0 25 24" fill="none" xmlns="http://www.w3.org/2000/svg">
<g id="Trash">
<path id="Vector" d="M9.24707 8.25C9.44598 8.25 9.63675 8.32902 9.7774 8.46967C9.91805 8.61032 9.99707 8.80109 9.99707 9V18C9.99707 18.1989 9.91805 18.3897 9.7774 18.5303C9.63675 18.671 9.44598 18.75 9.24707 18.75C9.04816 18.75 8.85739 18.671 8.71674 18.5303C8.57609 18.3897 8.49707 18.1989 8.49707 18V9C8.49707 8.80109 8.57609 8.61032 8.71674 8.46967C8.85739 8.32902 9.04816 8.25 9.24707 8.25ZM12.9971 8.25C13.196 8.25 13.3867 8.32902 13.5274 8.46967C13.6681 8.61032 13.7471 8.80109 13.7471 9V18C13.7471 18.1989 13.6681 18.3897 13.5274 18.5303C13.3867 18.671 13.196 18.75 12.9971 18.75C12.7982 18.75 12.6074 18.671 12.4667 18.5303C12.3261 18.3897 12.2471 18.1989 12.2471 18V9C12.2471 8.80109 12.3261 8.61032 12.4667 8.46967C12.6074 8.32902 12.7982 8.25 12.9971 8.25ZM17.4971 9C17.4971 8.80109 17.4181 8.61032 17.2774 8.46967C17.1367 8.32902 16.946 8.25 16.7471 8.25C16.5482 8.25 16.3574 8.32902 16.2167 8.46967C16.0761 8.61032 15.9971 8.80109 15.9971 9V18C15.9971 18.1989 16.0761 18.3897 16.2167 18.5303C16.3574 18.671 16.5482 18.75 16.7471 18.75C16.946 18.75 17.1367 18.671 17.2774 18.5303C17.4181 18.3897 17.4971 18.1989 17.4971 18V9Z" fill="#777777"/>
<path id="Vector_2" fill-rule="evenodd" clip-rule="evenodd" d="M22.7471 4.5C22.7471 4.89782 22.589 5.27936 22.3077 5.56066C22.0264 5.84196 21.6449 6 21.2471 6H20.4971V19.5C20.4971 20.2956 20.181 21.0587 19.6184 21.6213C19.0558 22.1839 18.2927 22.5 17.4971 22.5H8.49707C7.70142 22.5 6.93836 22.1839 6.37575 21.6213C5.81314 21.0587 5.49707 20.2956 5.49707 19.5V6H4.74707C4.34925 6 3.96771 5.84196 3.68641 5.56066C3.40511 5.27936 3.24707 4.89782 3.24707 4.5V3C3.24707 2.60218 3.40511 2.22064 3.68641 1.93934C3.96771 1.65804 4.34925 1.5 4.74707 1.5H9.99707C9.99707 1.10218 10.1551 0.720644 10.4364 0.43934C10.7177 0.158035 11.0992 0 11.4971 0L14.4971 0C14.8949 0 15.2764 0.158035 15.5577 0.43934C15.839 0.720644 15.9971 1.10218 15.9971 1.5H21.2471C21.6449 1.5 22.0264 1.65804 22.3077 1.93934C22.589 2.22064 22.7471 2.60218 22.7471 3V4.5ZM7.17407 6L6.99707 6.0885V19.5C6.99707 19.8978 7.15511 20.2794 7.43641 20.5607C7.71771 20.842 8.09925 21 8.49707 21H17.4971C17.8949 21 18.2764 20.842 18.5577 20.5607C18.839 20.2794 18.9971 19.8978 18.9971 19.5V6.0885L18.8201 6H7.17407ZM4.74707 4.5V3H21.2471V4.5H4.74707Z" fill="#777777"/>
</g>
</svg>
