<svg xmlns="http://www.w3.org/2000/svg" width="67.411" height="67.411" viewBox="0 0 67.411 67.411">
    <path data-name="Path 152" d="M33.706 63.2A29.492 29.492 0 1 1 63.2 33.706 29.492 29.492 0 0 1 33.706 63.2zm0 4.213A33.706 33.706 0 1 0 0 33.706a33.706 33.706 0 0 0 33.706 33.705z" style="fill:#2cc21c"/>
    <path data-name="Path 153" d="M16.738 16.51 7.09 17.72l-.345 1.6 1.9.35c1.239.295 1.483.742 1.213 1.976L6.744 36.258c-.817 3.779.442 5.557 3.4 5.557a8.725 8.725 0 0 0 6.177-2.515l.371-1.753a4.668 4.668 0 0 1-2.89 1.036c-1.159 0-1.58-.813-1.281-2.246zm.295-8.8A4.213 4.213 0 1 1 12.82 3.5a4.213 4.213 0 0 1 4.213 4.213z" transform="translate(20.886 11.246)" style="fill:#2cc21c"/>
</svg>
