<svg xmlns="http://www.w3.org/2000/svg" width="61.574" height="42.332" viewBox="0 0 61.574 42.332">
    <path data-name="cloud (2)" d="M16.956 7.165A21.281 21.281 0 0 1 30.787 2a19.767 19.767 0 0 1 19.881 17.622 12.4 12.4 0 0 1-1.843 24.71H14.551A14.365 14.365 0 0 1 0 30.162a14.266 14.266 0 0 1 11.322-13.827 16.184 16.184 0 0 1 5.634-9.17zm2.513 2.913c-2.913 2.513-4.437 5.542-4.437 7.912v1.724l-1.713.189a10.465 10.465 0 0 0-9.471 10.26 10.515 10.515 0 0 0 10.7 10.321h34.276a8.739 8.739 0 0 0 8.9-8.57 8.74 8.74 0 0 0-8.9-8.574H46.9v-1.925A15.841 15.841 0 0 0 30.787 5.848a17.433 17.433 0 0 0-11.318 4.233z" transform="translate(0 -2)" style="fill:#1c3366"/>
</svg>
