<svg xmlns="http://www.w3.org/2000/svg" width="62.169" height="68.618" viewBox="0 0 62.169 68.618">
    <g data-name="Group 2686">
        <path data-name="Path 373" d="M42.142 32.568h15.263a3.776 3.776 0 0 1 3.764 3.764V51.76a3.776 3.776 0 0 1-3.764 3.764H42.142a11.514 11.514 0 0 1-11.478-11.478 11.51 11.51 0 0 1 11.478-11.478zm-36.1-18.124h9.739c-.017-.275-.028-.55-.028-.831a13.615 13.615 0 0 1 27.231 0c0 .275-.011.55-.022.825l3.582-.005a6.556 6.556 0 0 1 6.652 6.52v1.089a6.66 6.66 0 0 1 3 5.552v2.4h-4.227v-1.6a3.134 3.134 0 0 0-3.125-3.125H9.97v-3.485a.845.845 0 0 1 .842-.842H17.9a13.523 13.523 0 0 1-1.188-2.316h-9.73a2.2 2.2 0 0 0-2.2 2.2v39.963a2.2 2.2 0 0 0 2.2 2.2h42.759a2.2 2.2 0 0 0 2.2-2.2v-2.514h4.336v4.154h-.011c-.017 2.872-3.081 5.189-6.108 5.189H6.025A6.053 6.053 0 0 1 0 61.587v-41.1a6.059 6.059 0 0 1 6.042-6.042zm35.99 4.176a13.523 13.523 0 0 1-1.189 2.316h8.694a6.165 6.165 0 0 1 .715.039v-.16a2.2 2.2 0 0 0-2.2-2.2h-6.02zm.688 18.158h13.541v14.547H42.72a7.3 7.3 0 0 1-7.274-7.274 7.293 7.293 0 0 1 7.274-7.274zm3.329 4.864a2.482 2.482 0 1 1-2.482 2.482 2.482 2.482 0 0 1 2.482-2.482z" style="fill:#1c3366;stroke:#fff;fill-rule:evenodd" transform="translate(.5 .5)"/>
        <text data-name="$" transform="translate(28.765 18.118)" style="fill:#fff;font-size:15px;font-family:HelveticaNeue-Medium,Helvetica Neue;font-weight:500"><tspan x="-4.17" y="0">$</tspan></text>
    </g>
</svg>
