<svg xmlns="http://www.w3.org/2000/svg" width="18" height="16.559" viewBox="0 0 18 16.559">
    <path d="M13.653.332a1.688 1.688 0 0 1 2.1 1.636V3.34h.563A1.688 1.688 0 0 1 18 5.027v10.125a1.688 1.688 0 0 1-1.687 1.687H1.688A1.687 1.687 0 0 1 0 15.152V5.027a1.688 1.688 0 0 1 1.611-1.686zM6.257 3.34h8.368V1.967a.563.563 0 0 0-.7-.545zM1.688 4.465a.563.563 0 0 0-.562.563v10.124a.563.563 0 0 0 .563.563h14.624a.563.563 0 0 0 .563-.562V5.027a.563.563 0 0 0-.562-.562z" transform="translate(0 -.281)" style="fill:#263342"/>
</svg>
